<mxfile host="drawio-plugin" modified="2023-07-07T20:51:09.679Z" agent="5.0 (Windows NT 6.2; Win64; x64) AppleWebKit/537.36 (KHTML, like Gecko) Chrome/104.0.5112.102 Safari/537.36" etag="8wBA7AdqrtShz6bxvd1D" version="20.5.3" type="embed" pages="3"><diagram name="FSD Roadmap" id="2c0d36ab-eaac-3732-788b-9136903baeff"><mxGraphModel dx="2160" dy="1233" grid="1" gridSize="10" guides="1" tooltips="1" connect="1" arrows="1" fold="1" page="1" pageScale="1.5" pageWidth="1169" pageHeight="827" background="none" math="0" shadow="0"><root><mxCell id="0"/><mxCell id="1" parent="0"/><mxCell id="123" value="" style="fillColor=#AE4132;strokeColor=none;opacity=30;" parent="1" vertex="1"><mxGeometry x="747" y="175.50000000000003" width="210" height="99.99999999999994" as="geometry"/></mxCell><mxCell id="122" value="" style="fillColor=#10739E;strokeColor=none;opacity=30;" parent="1" vertex="1"><mxGeometry x="97" y="325.5" width="2063" height="100" as="geometry"/></mxCell><mxCell id="120" value="" style="fillColor=#FFFFFF;strokeColor=none;opacity=30;" parent="1" vertex="1"><mxGeometry x="1317" y="475.5" width="150" height="90" as="geometry"/></mxCell><mxCell id="116" value="" style="fillColor=#FFFFFF;strokeColor=none;opacity=30;" parent="1" vertex="1"><mxGeometry x="1557" y="975.5000000000002" width="150" height="80" as="geometry"/></mxCell><mxCell id="115" value="" style="fillColor=#FFFFFF;strokeColor=none;opacity=30;" parent="1" vertex="1"><mxGeometry x="1700" y="715.5" width="330" height="80" as="geometry"/></mxCell><mxCell id="110" value="" style="fillColor=#FFFFFF;strokeColor=none;opacity=30;" parent="1" vertex="1"><mxGeometry x="1207" y="435.5000000000001" width="500" height="80" as="geometry"/></mxCell><mxCell id="109" value="" style="fillColor=#FFFFFF;strokeColor=none;opacity=30;" parent="1" vertex="1"><mxGeometry x="757" y="475.5" width="500" height="80" as="geometry"/></mxCell><mxCell id="btcB14pR6yw6RGkF3p0m-154" style="edgeStyle=orthogonalEdgeStyle;rounded=0;orthogonalLoop=1;jettySize=auto;html=1;exitX=0.5;exitY=1;exitDx=0;exitDy=0;entryX=0.5;entryY=0;entryDx=0;entryDy=0;strokeWidth=2;" parent="1" source="2" target="10" edge="1"><mxGeometry relative="1" as="geometry"><Array as="points"><mxPoint x="852" y="300"/><mxPoint x="1392" y="300"/></Array></mxGeometry></mxCell><mxCell id="btcB14pR6yw6RGkF3p0m-155" style="edgeStyle=orthogonalEdgeStyle;rounded=0;orthogonalLoop=1;jettySize=auto;html=1;entryX=0.5;entryY=0;entryDx=0;entryDy=0;strokeWidth=2;" parent="1" source="2" edge="1"><mxGeometry relative="1" as="geometry"><mxPoint x="535" y="335.5" as="targetPoint"/><Array as="points"><mxPoint x="852" y="300"/><mxPoint x="535" y="300"/></Array></mxGeometry></mxCell><mxCell id="2" value="Full Stack Developer &#10;RoadMap" style="rounded=1;fillColor=#23445D;gradientColor=none;strokeColor=none;fontColor=#FFFFFF;fontStyle=1;fontFamily=Tahoma;fontSize=14" parent="1" vertex="1"><mxGeometry x="757" y="185.5" width="190" height="80" as="geometry"/></mxCell><mxCell id="4" value="Database Management" style="rounded=1;fillColor=#23445D;gradientColor=none;strokeColor=none;fontColor=#FFFFFF;fontStyle=1;fontFamily=Tahoma;fontSize=14" parent="1" vertex="1"><mxGeometry x="1854.9999999999998" y="335.5" width="190" height="80" as="geometry"/></mxCell><mxCell id="9" value="" style="edgeStyle=elbowEdgeStyle;elbow=vertical;strokeWidth=2;rounded=0" parent="1" source="2" target="4" edge="1"><mxGeometry x="337" y="215.5" width="100" height="100" as="geometry"><mxPoint x="337" y="315.5" as="sourcePoint"/><mxPoint x="437" y="215.5" as="targetPoint"/></mxGeometry></mxCell><mxCell id="10" value="Technical Tools" style="rounded=1;fillColor=#23445D;gradientColor=none;strokeColor=none;fontColor=#FFFFFF;fontStyle=1;fontFamily=Tahoma;fontSize=14" parent="1" vertex="1"><mxGeometry x="1297" y="335.5" width="190" height="80" as="geometry"/></mxCell><mxCell id="12" value="Frontend Developer" style="rounded=1;fillColor=#23445D;gradientColor=none;strokeColor=none;fontColor=#FFFFFF;fontStyle=1;fontFamily=Tahoma;fontSize=14" parent="1" vertex="1"><mxGeometry x="901.9999999999999" y="335.5" width="190" height="80" as="geometry"/></mxCell><mxCell id="25" value="UI Design" style="rounded=1;fillColor=#23445D;gradientColor=none;strokeColor=none;fontColor=#FFFFFF;fontStyle=1;fontFamily=Tahoma;fontSize=14" parent="1" vertex="1"><mxGeometry x="767" y="485.5" width="130" height="60" as="geometry"/></mxCell><mxCell id="26" value="HTML/CSS" style="rounded=1;fillColor=#23445D;gradientColor=none;strokeColor=none;fontColor=#FFFFFF;fontStyle=1;fontFamily=Tahoma;fontSize=14" parent="1" vertex="1"><mxGeometry x="767" y="575.5" width="130" height="60" as="geometry"/></mxCell><mxCell id="27" value="Bootstrap" style="rounded=1;fillColor=#23445D;gradientColor=none;strokeColor=none;fontColor=#FFFFFF;fontStyle=1;fontFamily=Tahoma;fontSize=14" parent="1" vertex="1"><mxGeometry x="767" y="665.5" width="130" height="60" as="geometry"/></mxCell><mxCell id="28" value="SASS and etc" style="rounded=1;fillColor=#23445D;gradientColor=none;strokeColor=none;fontColor=#FFFFFF;fontStyle=1;fontFamily=Tahoma;fontSize=14" parent="1" vertex="1"><mxGeometry x="767" y="755.5" width="130" height="60" as="geometry"/></mxCell><mxCell id="29" value="Languages" style="rounded=1;fillColor=#23445D;gradientColor=none;strokeColor=none;fontColor=#FFFFFF;fontStyle=1;fontFamily=Tahoma;fontSize=14" parent="1" vertex="1"><mxGeometry x="942" y="485.5" width="130" height="60" as="geometry"/></mxCell><mxCell id="30" value="JavaScript" style="rounded=1;fillColor=#23445D;gradientColor=none;strokeColor=none;fontColor=#FFFFFF;fontStyle=1;fontFamily=Tahoma;fontSize=14" parent="1" vertex="1"><mxGeometry x="942" y="575.5" width="130" height="60" as="geometry"/></mxCell><mxCell id="31" value="TypeScript" style="rounded=1;fillColor=#23445D;gradientColor=none;strokeColor=none;fontColor=#FFFFFF;fontStyle=1;fontFamily=Tahoma;fontSize=14" parent="1" vertex="1"><mxGeometry x="942" y="665.5" width="130" height="60" as="geometry"/></mxCell><mxCell id="33" value="Frameworks" style="rounded=1;fillColor=#23445D;gradientColor=none;strokeColor=none;fontColor=#FFFFFF;fontStyle=1;fontFamily=Tahoma;fontSize=14" parent="1" vertex="1"><mxGeometry x="1117" y="485.5" width="130" height="60" as="geometry"/></mxCell><mxCell id="34" value="React" style="rounded=1;fillColor=#23445D;gradientColor=none;strokeColor=none;fontColor=#FFFFFF;fontStyle=1;fontFamily=Tahoma;fontSize=14" parent="1" vertex="1"><mxGeometry x="1117" y="575.5" width="130" height="60" as="geometry"/></mxCell><mxCell id="35" value="Angular" style="rounded=1;fillColor=#23445D;gradientColor=none;strokeColor=none;fontColor=#FFFFFF;fontStyle=1;fontFamily=Tahoma;fontSize=14" parent="1" vertex="1"><mxGeometry x="1117" y="665.5" width="130" height="60" as="geometry"/></mxCell><mxCell id="41" value="Version Control" style="rounded=1;fillColor=#23445D;gradientColor=none;strokeColor=none;fontColor=#FFFFFF;fontStyle=1;fontFamily=Tahoma;fontSize=14" parent="1" vertex="1"><mxGeometry x="1327" y="485.5" width="130" height="60" as="geometry"/></mxCell><mxCell id="42" value="Git with GitHub" style="rounded=1;fillColor=#23445D;gradientColor=none;strokeColor=none;fontColor=#FFFFFF;fontStyle=1;fontFamily=Tahoma;fontSize=14" parent="1" vertex="1"><mxGeometry x="1327" y="575.5" width="130" height="60" as="geometry"/></mxCell><mxCell id="43" value="Git with &#10;integrated IDE" style="rounded=1;fillColor=#23445D;gradientColor=none;strokeColor=none;fontColor=#FFFFFF;fontStyle=1;fontFamily=Tahoma;fontSize=14" parent="1" vertex="1"><mxGeometry x="1327" y="665.5" width="130" height="60" as="geometry"/></mxCell><mxCell id="44" value="Databases" style="rounded=1;fillColor=#23445D;gradientColor=none;strokeColor=none;fontColor=#FFFFFF;fontStyle=1;fontFamily=Tahoma;fontSize=14" parent="1" vertex="1"><mxGeometry x="1710" y="455.50000000000006" width="130" height="60" as="geometry"/></mxCell><mxCell id="45" value="SSMS" style="rounded=1;fillColor=#23445D;gradientColor=none;strokeColor=none;fontColor=#FFFFFF;fontStyle=1;fontFamily=Tahoma;fontSize=14" parent="1" vertex="1"><mxGeometry x="1710" y="545.5" width="130" height="60" as="geometry"/></mxCell><mxCell id="46" value="MySQL" style="rounded=1;fillColor=#23445D;gradientColor=none;strokeColor=none;fontColor=#FFFFFF;fontStyle=1;fontFamily=Tahoma;fontSize=14" parent="1" vertex="1"><mxGeometry x="1710" y="635.5" width="130" height="60" as="geometry"/></mxCell><mxCell id="47" value="PostgreSQL" style="rounded=1;fillColor=#23445D;gradientColor=none;strokeColor=none;fontColor=#FFFFFF;fontStyle=1;fontFamily=Tahoma;fontSize=14" parent="1" vertex="1"><mxGeometry x="1710" y="725.5000000000001" width="130" height="60" as="geometry"/></mxCell><mxCell id="48" value="TOOLS" style="rounded=1;fillColor=#23445D;gradientColor=none;strokeColor=none;fontColor=#FFFFFF;fontStyle=1;fontFamily=Tahoma;fontSize=14" parent="1" vertex="1"><mxGeometry x="1885" y="455.50000000000006" width="130" height="60" as="geometry"/></mxCell><mxCell id="49" value="ORMs" style="rounded=1;fillColor=#23445D;gradientColor=none;strokeColor=none;fontColor=#FFFFFF;fontStyle=1;fontFamily=Tahoma;fontSize=14" parent="1" vertex="1"><mxGeometry x="1885" y="545.5" width="130" height="60" as="geometry"/></mxCell><mxCell id="50" value="Hibernate" style="rounded=1;fillColor=#23445D;gradientColor=none;strokeColor=none;fontColor=#FFFFFF;fontStyle=1;fontFamily=Tahoma;fontSize=14" parent="1" vertex="1"><mxGeometry x="1885" y="635.5" width="130" height="60" as="geometry"/></mxCell><mxCell id="51" value="Data Replication" style="rounded=1;fillColor=#23445D;gradientColor=none;strokeColor=none;fontColor=#FFFFFF;fontStyle=1;fontFamily=Tahoma;fontSize=14" parent="1" vertex="1"><mxGeometry x="1885" y="725.5000000000001" width="130" height="60" as="geometry"/></mxCell><mxCell id="52" value="XMI" style="rounded=1;fillColor=#23445D;gradientColor=none;strokeColor=none;fontColor=#FFFFFF;fontStyle=1;fontFamily=Tahoma;fontSize=14" parent="1" vertex="1"><mxGeometry x="2060" y="455.50000000000006" width="130" height="60" as="geometry"/></mxCell><mxCell id="53" value="Programming" style="rounded=1;fillColor=#23445D;gradientColor=none;strokeColor=none;fontColor=#FFFFFF;fontStyle=1;fontFamily=Tahoma;fontSize=14" parent="1" vertex="1"><mxGeometry x="2060" y="545.5" width="130" height="60" as="geometry"/></mxCell><mxCell id="54" value="HTTP" style="rounded=1;fillColor=#23445D;gradientColor=none;strokeColor=none;fontColor=#FFFFFF;fontStyle=1;fontFamily=Tahoma;fontSize=14" parent="1" vertex="1"><mxGeometry x="2060" y="635.5" width="130" height="60" as="geometry"/></mxCell><mxCell id="55" value="HTS" style="rounded=1;fillColor=#23445D;gradientColor=none;strokeColor=none;fontColor=#FFFFFF;fontStyle=1;fontFamily=Tahoma;fontSize=14" parent="1" vertex="1"><mxGeometry x="2060" y="725.5000000000001" width="130" height="60" as="geometry"/></mxCell><mxCell id="56" value="CVS" style="rounded=1;fillColor=#23445D;gradientColor=none;strokeColor=none;fontColor=#FFFFFF;fontStyle=1;fontFamily=Tahoma;fontSize=14" parent="1" vertex="1"><mxGeometry x="2060" y="815.5000000000001" width="130" height="60" as="geometry"/></mxCell><mxCell id="57" value="Client / Server" style="rounded=1;fillColor=#23445D;gradientColor=none;strokeColor=none;fontColor=#FFFFFF;fontStyle=1;fontFamily=Tahoma;fontSize=14" parent="1" vertex="1"><mxGeometry x="2060" y="905.5000000000001" width="130" height="60" as="geometry"/></mxCell><mxCell id="58" value="Data Collection" style="rounded=1;fillColor=#23445D;gradientColor=none;strokeColor=none;fontColor=#FFFFFF;fontStyle=1;fontFamily=Tahoma;fontSize=14" parent="1" vertex="1"><mxGeometry x="2060" y="995.5000000000001" width="130" height="60" as="geometry"/></mxCell><mxCell id="59" value="" style="edgeStyle=elbowEdgeStyle;elbow=vertical;strokeWidth=2;rounded=0" parent="1" target="12" edge="1"><mxGeometry x="697" y="255.5" width="100" height="100" as="geometry"><mxPoint x="1202" y="295.5" as="sourcePoint"/><mxPoint x="1816.9999999999998" y="375.5" as="targetPoint"/><Array as="points"><mxPoint x="1160" y="300"/></Array></mxGeometry></mxCell><mxCell id="61" value="" style="edgeStyle=elbowEdgeStyle;elbow=vertical;strokeWidth=2;rounded=0" parent="1" source="2" edge="1"><mxGeometry x="-23" y="135.5" width="100" height="100" as="geometry"><mxPoint x="-23" y="235.5" as="sourcePoint"/><mxPoint x="202" y="335.5" as="targetPoint"/></mxGeometry></mxCell><mxCell id="70" value="" style="edgeStyle=elbowEdgeStyle;elbow=horizontal;strokeWidth=2;rounded=0" parent="1" source="25" target="26" edge="1"><mxGeometry x="-23" y="125.5" width="100" height="100" as="geometry"><mxPoint x="-23" y="225.5" as="sourcePoint"/><mxPoint x="77" y="125.5" as="targetPoint"/><Array as="points"><mxPoint x="720" y="550"/><mxPoint x="397" y="525.5"/></Array></mxGeometry></mxCell><mxCell id="71" value="" style="edgeStyle=elbowEdgeStyle;elbow=horizontal;strokeWidth=2;rounded=0" parent="1" source="25" target="27" edge="1"><mxGeometry x="-23" y="125.5" width="100" height="100" as="geometry"><mxPoint x="-23" y="225.5" as="sourcePoint"/><mxPoint x="77" y="125.5" as="targetPoint"/><Array as="points"><mxPoint x="720" y="560"/><mxPoint x="397" y="565.5"/></Array></mxGeometry></mxCell><mxCell id="72" value="" style="edgeStyle=elbowEdgeStyle;elbow=horizontal;strokeWidth=2;rounded=0" parent="1" source="25" target="28" edge="1"><mxGeometry x="-23" y="125.5" width="100" height="100" as="geometry"><mxPoint x="-23" y="225.5" as="sourcePoint"/><mxPoint x="77" y="125.5" as="targetPoint"/><Array as="points"><mxPoint x="720" y="560"/><mxPoint x="397" y="605.5"/></Array></mxGeometry></mxCell><mxCell id="73" value="" style="edgeStyle=elbowEdgeStyle;elbow=horizontal;strokeWidth=2;rounded=0" parent="1" source="29" target="30" edge="1"><mxGeometry x="327" y="165.5" width="100" height="100" as="geometry"><mxPoint x="327" y="265.5" as="sourcePoint"/><mxPoint x="427" y="165.5" as="targetPoint"/><Array as="points"><mxPoint x="917" y="565.5"/></Array></mxGeometry></mxCell><mxCell id="74" value="" style="edgeStyle=elbowEdgeStyle;elbow=horizontal;strokeWidth=2;rounded=0" parent="1" source="29" target="31" edge="1"><mxGeometry x="327" y="165.5" width="100" height="100" as="geometry"><mxPoint x="327" y="265.5" as="sourcePoint"/><mxPoint x="427" y="165.5" as="targetPoint"/><Array as="points"><mxPoint x="917" y="605.5"/></Array></mxGeometry></mxCell><mxCell id="76" value="" style="edgeStyle=elbowEdgeStyle;elbow=horizontal;strokeWidth=2;rounded=0" parent="1" source="33" target="34" edge="1"><mxGeometry x="327" y="165.5" width="100" height="100" as="geometry"><mxPoint x="327" y="265.5" as="sourcePoint"/><mxPoint x="427" y="165.5" as="targetPoint"/><Array as="points"><mxPoint x="1097" y="565.5"/></Array></mxGeometry></mxCell><mxCell id="77" value="" style="edgeStyle=elbowEdgeStyle;elbow=horizontal;strokeWidth=2;rounded=0" parent="1" source="33" target="35" edge="1"><mxGeometry x="327" y="165.5" width="100" height="100" as="geometry"><mxPoint x="327" y="265.5" as="sourcePoint"/><mxPoint x="427" y="165.5" as="targetPoint"/><Array as="points"><mxPoint x="1097" y="605.5"/></Array></mxGeometry></mxCell><mxCell id="82" value="" style="edgeStyle=elbowEdgeStyle;elbow=horizontal;strokeWidth=2;rounded=0" parent="1" source="41" target="42" edge="1"><mxGeometry x="327" y="165.5" width="100" height="100" as="geometry"><mxPoint x="327" y="265.5" as="sourcePoint"/><mxPoint x="427" y="165.5" as="targetPoint"/><Array as="points"><mxPoint x="1307" y="565.5"/></Array></mxGeometry></mxCell><mxCell id="83" value="" style="edgeStyle=elbowEdgeStyle;elbow=horizontal;strokeWidth=2;rounded=0" parent="1" source="41" target="43" edge="1"><mxGeometry x="327" y="165.5" width="100" height="100" as="geometry"><mxPoint x="327" y="265.5" as="sourcePoint"/><mxPoint x="427" y="165.5" as="targetPoint"/><Array as="points"><mxPoint x="1307" y="615.5"/></Array></mxGeometry></mxCell><mxCell id="84" value="" style="edgeStyle=elbowEdgeStyle;elbow=horizontal;strokeWidth=2;rounded=0" parent="1" source="44" target="45" edge="1"><mxGeometry x="-23" y="125.5" width="100" height="100" as="geometry"><mxPoint x="-23" y="225.5" as="sourcePoint"/><mxPoint x="77" y="125.5" as="targetPoint"/><Array as="points"><mxPoint x="1680" y="540"/><mxPoint x="1197" y="535.5"/></Array></mxGeometry></mxCell><mxCell id="85" value="" style="edgeStyle=elbowEdgeStyle;elbow=horizontal;strokeWidth=2;rounded=0" parent="1" source="44" target="46" edge="1"><mxGeometry x="-23" y="125.5" width="100" height="100" as="geometry"><mxPoint x="-23" y="225.5" as="sourcePoint"/><mxPoint x="77" y="125.5" as="targetPoint"/><Array as="points"><mxPoint x="1680" y="560"/><mxPoint x="1197" y="565.5"/></Array></mxGeometry></mxCell><mxCell id="86" value="" style="edgeStyle=elbowEdgeStyle;elbow=horizontal;strokeWidth=2;rounded=0" parent="1" source="44" target="47" edge="1"><mxGeometry x="-23" y="125.5" width="100" height="100" as="geometry"><mxPoint x="-23" y="225.5" as="sourcePoint"/><mxPoint x="77" y="125.5" as="targetPoint"/><Array as="points"><mxPoint x="1680" y="600"/><mxPoint x="1197" y="615.5"/></Array></mxGeometry></mxCell><mxCell id="87" value="" style="edgeStyle=elbowEdgeStyle;elbow=horizontal;strokeWidth=2;rounded=0" parent="1" source="48" target="49" edge="1"><mxGeometry x="470" y="135.5" width="100" height="100" as="geometry"><mxPoint x="470" y="235.5" as="sourcePoint"/><mxPoint x="570" y="135.5" as="targetPoint"/><Array as="points"><mxPoint x="1860" y="535.5"/></Array></mxGeometry></mxCell><mxCell id="88" value="" style="edgeStyle=elbowEdgeStyle;elbow=horizontal;strokeWidth=2;rounded=0" parent="1" source="48" target="50" edge="1"><mxGeometry x="470" y="135.5" width="100" height="100" as="geometry"><mxPoint x="470" y="235.5" as="sourcePoint"/><mxPoint x="570" y="135.5" as="targetPoint"/><Array as="points"><mxPoint x="1860" y="595.5"/></Array></mxGeometry></mxCell><mxCell id="89" value="" style="edgeStyle=elbowEdgeStyle;elbow=horizontal;strokeWidth=2;rounded=0" parent="1" source="48" target="51" edge="1"><mxGeometry x="470" y="135.5" width="100" height="100" as="geometry"><mxPoint x="470" y="235.5" as="sourcePoint"/><mxPoint x="570" y="135.5" as="targetPoint"/><Array as="points"><mxPoint x="1860" y="625.5"/></Array></mxGeometry></mxCell><mxCell id="90" value="" style="edgeStyle=elbowEdgeStyle;elbow=horizontal;strokeWidth=2;rounded=0" parent="1" source="52" target="53" edge="1"><mxGeometry x="470" y="135.5" width="100" height="100" as="geometry"><mxPoint x="470" y="235.5" as="sourcePoint"/><mxPoint x="570" y="135.5" as="targetPoint"/><Array as="points"><mxPoint x="2040" y="535.5"/></Array></mxGeometry></mxCell><mxCell id="91" value="" style="edgeStyle=elbowEdgeStyle;elbow=horizontal;strokeWidth=2;rounded=0" parent="1" source="52" target="54" edge="1"><mxGeometry x="470" y="135.5" width="100" height="100" as="geometry"><mxPoint x="470" y="235.5" as="sourcePoint"/><mxPoint x="570" y="135.5" as="targetPoint"/><Array as="points"><mxPoint x="2040" y="575.5"/></Array></mxGeometry></mxCell><mxCell id="92" value="" style="edgeStyle=elbowEdgeStyle;elbow=horizontal;strokeWidth=2;rounded=0" parent="1" source="52" target="55" edge="1"><mxGeometry x="470" y="135.5" width="100" height="100" as="geometry"><mxPoint x="470" y="235.5" as="sourcePoint"/><mxPoint x="570" y="135.5" as="targetPoint"/><Array as="points"><mxPoint x="2040" y="625.5"/></Array></mxGeometry></mxCell><mxCell id="93" value="" style="edgeStyle=elbowEdgeStyle;elbow=horizontal;strokeWidth=2;rounded=0" parent="1" source="52" target="56" edge="1"><mxGeometry x="470" y="135.5" width="100" height="100" as="geometry"><mxPoint x="470" y="235.5" as="sourcePoint"/><mxPoint x="570" y="135.5" as="targetPoint"/><Array as="points"><mxPoint x="2040" y="675.5"/></Array></mxGeometry></mxCell><mxCell id="94" value="" style="edgeStyle=elbowEdgeStyle;elbow=horizontal;strokeWidth=2;rounded=0" parent="1" source="52" target="57" edge="1"><mxGeometry x="470" y="135.5" width="100" height="100" as="geometry"><mxPoint x="470" y="235.5" as="sourcePoint"/><mxPoint x="570" y="135.5" as="targetPoint"/><Array as="points"><mxPoint x="2040" y="725.5"/></Array></mxGeometry></mxCell><mxCell id="95" value="" style="edgeStyle=elbowEdgeStyle;elbow=horizontal;strokeWidth=2;rounded=0" parent="1" source="52" target="58" edge="1"><mxGeometry x="470" y="135.5" width="100" height="100" as="geometry"><mxPoint x="470" y="235.5" as="sourcePoint"/><mxPoint x="570" y="135.5" as="targetPoint"/><Array as="points"><mxPoint x="2040" y="765.5"/></Array></mxGeometry></mxCell><mxCell id="100" value="" style="edgeStyle=elbowEdgeStyle;elbow=vertical;strokeWidth=2;rounded=0" parent="1" source="12" target="25" edge="1"><mxGeometry x="327" y="165.5" width="100" height="100" as="geometry"><mxPoint x="327" y="265.5" as="sourcePoint"/><mxPoint x="427" y="165.5" as="targetPoint"/></mxGeometry></mxCell><mxCell id="101" value="" style="edgeStyle=elbowEdgeStyle;elbow=vertical;strokeWidth=2;rounded=0" parent="1" source="12" target="29" edge="1"><mxGeometry x="327" y="165.5" width="100" height="100" as="geometry"><mxPoint x="327" y="265.5" as="sourcePoint"/><mxPoint x="427" y="165.5" as="targetPoint"/></mxGeometry></mxCell><mxCell id="102" value="" style="edgeStyle=elbowEdgeStyle;elbow=vertical;strokeWidth=2;rounded=0" parent="1" source="12" target="33" edge="1"><mxGeometry x="327" y="165.5" width="100" height="100" as="geometry"><mxPoint x="327" y="265.5" as="sourcePoint"/><mxPoint x="427" y="165.5" as="targetPoint"/></mxGeometry></mxCell><mxCell id="103" value="" style="edgeStyle=elbowEdgeStyle;elbow=vertical;strokeWidth=2;rounded=0" parent="1" source="10" target="41" edge="1"><mxGeometry x="327" y="165.5" width="100" height="100" as="geometry"><mxPoint x="327" y="265.5" as="sourcePoint"/><mxPoint x="427" y="165.5" as="targetPoint"/></mxGeometry></mxCell><mxCell id="104" value="" style="edgeStyle=elbowEdgeStyle;elbow=vertical;strokeWidth=2;rounded=0" parent="1" source="4" target="48" edge="1"><mxGeometry x="470" y="135.5" width="100" height="100" as="geometry"><mxPoint x="470" y="235.5" as="sourcePoint"/><mxPoint x="570" y="135.5" as="targetPoint"/></mxGeometry></mxCell><mxCell id="105" value="" style="edgeStyle=elbowEdgeStyle;elbow=vertical;strokeWidth=2;rounded=0" parent="1" source="4" target="44" edge="1"><mxGeometry x="470" y="135.5" width="100" height="100" as="geometry"><mxPoint x="470" y="235.5" as="sourcePoint"/><mxPoint x="570" y="135.5" as="targetPoint"/></mxGeometry></mxCell><mxCell id="106" value="" style="edgeStyle=elbowEdgeStyle;elbow=vertical;strokeWidth=2;rounded=0" parent="1" source="4" target="52" edge="1"><mxGeometry x="470" y="135.5" width="100" height="100" as="geometry"><mxPoint x="470" y="235.5" as="sourcePoint"/><mxPoint x="570" y="135.5" as="targetPoint"/></mxGeometry></mxCell><mxCell id="tN86sV1eUvcPmCpTXTXW-123" value="Text" style="text;html=1;align=center;verticalAlign=middle;resizable=0;points=[];autosize=1;strokeColor=none;fillColor=none;" parent="1" vertex="1"><mxGeometry x="1310" y="170" width="40" height="20" as="geometry"/></mxCell><mxCell id="btcB14pR6yw6RGkF3p0m-124" value="" style="fillColor=#FF1929;strokeColor=none;opacity=30;" parent="1" vertex="1"><mxGeometry x="757" y="465.5" width="160" height="280" as="geometry"/></mxCell><mxCell id="btcB14pR6yw6RGkF3p0m-125" value="" style="fillColor=#FF1929;strokeColor=none;opacity=30;" parent="1" vertex="1"><mxGeometry x="917" y="465.5" width="160" height="174.5" as="geometry"/></mxCell><mxCell id="btcB14pR6yw6RGkF3p0m-126" value="" style="fillColor=#FF1929;strokeColor=none;opacity=30;" parent="1" vertex="1"><mxGeometry x="1077" y="465.5" width="393" height="174.5" as="geometry"/></mxCell><mxCell id="Z18R7N_yJk7huMT78ZKw-123" value="Backend Developer&#10;Roadmap" style="rounded=1;fillColor=#23445D;gradientColor=none;strokeColor=none;fontColor=#FFFFFF;fontStyle=1;fontFamily=Tahoma;fontSize=14" parent="1" vertex="1"><mxGeometry x="120" y="335.5" width="190" height="80" as="geometry"/></mxCell></root></mxGraphModel></diagram><diagram id="PEEMGKXIU4ZpKlhOTQBc" name="Java SE"><mxGraphModel dx="972" dy="555" grid="1" gridSize="10" guides="1" tooltips="1" connect="1" arrows="1" fold="1" page="1" pageScale="1" pageWidth="850" pageHeight="1100" math="0" shadow="0"><root><mxCell id="0"/><mxCell id="1" parent="0"/><mxCell id="kT4tPx8mULPbLntkXdMX-1" value="" style="fillColor=#FFFFFF;strokeColor=none;opacity=30;" parent="1" vertex="1"><mxGeometry x="227.00000000000009" y="445.5000000000002" width="149.99999999999991" height="439.9999999999998" as="geometry"/></mxCell><mxCell id="kT4tPx8mULPbLntkXdMX-2" value="" style="fillColor=#10739E;strokeColor=none;opacity=30;" parent="1" vertex="1"><mxGeometry x="226.99999999999997" y="895.5" width="150" height="80" as="geometry"/></mxCell><mxCell id="kT4tPx8mULPbLntkXdMX-3" value="String Operations" style="rounded=1;fillColor=#23445D;gradientColor=none;strokeColor=none;fontColor=#FFFFFF;fontStyle=1;fontFamily=Tahoma;fontSize=14" parent="1" vertex="1"><mxGeometry x="117" y="340.5" width="190" height="80" as="geometry"/></mxCell><mxCell id="kT4tPx8mULPbLntkXdMX-4" value="How Web&#10; Works?" style="rounded=1;fillColor=#23445D;gradientColor=none;strokeColor=none;fontColor=#FFFFFF;fontStyle=1;fontFamily=Tahoma;fontSize=14;backgroundOutline=0;" parent="1" vertex="1"><mxGeometry x="67" y="460.5" width="130" height="60" as="geometry"/></mxCell><mxCell id="kT4tPx8mULPbLntkXdMX-5" value="" style="edgeStyle=orthogonalEdgeStyle;rounded=0;orthogonalLoop=1;jettySize=auto;html=1;backgroundOutline=0;" parent="1" source="kT4tPx8mULPbLntkXdMX-6" target="kT4tPx8mULPbLntkXdMX-21" edge="1"><mxGeometry relative="1" as="geometry"/></mxCell><mxCell id="kT4tPx8mULPbLntkXdMX-6" value="What is HTTP?" style="rounded=1;fillColor=#23445D;gradientColor=none;strokeColor=none;fontColor=#FFFFFF;fontStyle=1;fontFamily=Tahoma;fontSize=14;backgroundOutline=0;" parent="1" vertex="1"><mxGeometry x="67" y="550.5" width="130" height="60" as="geometry"/></mxCell><UserObject label="Java SE" id="kT4tPx8mULPbLntkXdMX-7"><mxCell style="rounded=1;fillColor=#23445D;gradientColor=none;strokeColor=none;fontColor=#FFFFFF;fontStyle=1;fontFamily=Tahoma;fontSize=14" parent="1" vertex="1"><mxGeometry x="247" y="460.5" width="130" height="60" as="geometry"/></mxCell></UserObject><mxCell id="kT4tPx8mULPbLntkXdMX-8" value="Java EE" style="rounded=1;fillColor=#23445D;gradientColor=none;strokeColor=none;fontColor=#FFFFFF;fontStyle=1;fontFamily=Tahoma;fontSize=14" parent="1" vertex="1"><mxGeometry x="247" y="550.5" width="130" height="60" as="geometry"/></mxCell><mxCell id="kT4tPx8mULPbLntkXdMX-9" value="Spring &#10;Framework" style="rounded=1;fillColor=#23445D;gradientColor=none;strokeColor=none;fontColor=#FFFFFF;fontStyle=1;fontFamily=Tahoma;fontSize=14" parent="1" vertex="1"><mxGeometry x="247" y="640.5" width="130" height="60" as="geometry"/></mxCell><mxCell id="kT4tPx8mULPbLntkXdMX-10" value="" style="rounded=1;fillColor=#23445D;gradientColor=none;strokeColor=none;fontColor=#FFFFFF;fontStyle=1;fontFamily=Tahoma;fontSize=14" parent="1" vertex="1"><mxGeometry x="247" y="730.5" width="130" height="60" as="geometry"/></mxCell><mxCell id="kT4tPx8mULPbLntkXdMX-11" value="" style="rounded=1;fillColor=#23445D;gradientColor=none;strokeColor=none;fontColor=#FFFFFF;fontStyle=1;fontFamily=Tahoma;fontSize=14" parent="1" vertex="1"><mxGeometry x="247" y="820.5" width="130" height="60" as="geometry"/></mxCell><mxCell id="kT4tPx8mULPbLntkXdMX-12" value="" style="rounded=1;fillColor=#23445D;gradientColor=none;strokeColor=none;fontColor=#FFFFFF;fontStyle=1;fontFamily=Tahoma;fontSize=14" parent="1" vertex="1"><mxGeometry x="247" y="910.4999999999999" width="130" height="60" as="geometry"/></mxCell><mxCell id="kT4tPx8mULPbLntkXdMX-13" value="" style="edgeStyle=elbowEdgeStyle;elbow=vertical;strokeWidth=2;rounded=0" parent="1" source="kT4tPx8mULPbLntkXdMX-3" target="kT4tPx8mULPbLntkXdMX-4" edge="1"><mxGeometry x="-13" y="140.5" width="100" height="100" as="geometry"><mxPoint x="-13" y="240.5" as="sourcePoint"/><mxPoint x="87" y="140.5" as="targetPoint"/></mxGeometry></mxCell><mxCell id="kT4tPx8mULPbLntkXdMX-14" value="" style="edgeStyle=elbowEdgeStyle;elbow=horizontal;strokeWidth=2;rounded=0" parent="1" source="kT4tPx8mULPbLntkXdMX-3" target="kT4tPx8mULPbLntkXdMX-7" edge="1"><mxGeometry x="-13" y="140.5" width="100" height="100" as="geometry"><mxPoint x="-13" y="240.5" as="sourcePoint"/><mxPoint x="87" y="140.5" as="targetPoint"/><Array as="points"><mxPoint x="212" y="440.5"/></Array></mxGeometry></mxCell><mxCell id="kT4tPx8mULPbLntkXdMX-15" value="" style="edgeStyle=elbowEdgeStyle;elbow=horizontal;strokeWidth=2;rounded=0" parent="1" source="kT4tPx8mULPbLntkXdMX-3" target="kT4tPx8mULPbLntkXdMX-8" edge="1"><mxGeometry x="-13" y="140.5" width="100" height="100" as="geometry"><mxPoint x="-13" y="240.5" as="sourcePoint"/><mxPoint x="87" y="140.5" as="targetPoint"/><Array as="points"><mxPoint x="212" y="480.5"/></Array></mxGeometry></mxCell><mxCell id="kT4tPx8mULPbLntkXdMX-16" value="" style="edgeStyle=elbowEdgeStyle;elbow=horizontal;strokeWidth=2;rounded=0" parent="1" source="kT4tPx8mULPbLntkXdMX-3" target="kT4tPx8mULPbLntkXdMX-9" edge="1"><mxGeometry x="-13" y="140.5" width="100" height="100" as="geometry"><mxPoint x="-13" y="240.5" as="sourcePoint"/><mxPoint x="87" y="140.5" as="targetPoint"/><Array as="points"><mxPoint x="212" y="530.5"/></Array></mxGeometry></mxCell><mxCell id="kT4tPx8mULPbLntkXdMX-17" value="" style="edgeStyle=elbowEdgeStyle;elbow=horizontal;strokeWidth=2;rounded=0" parent="1" source="kT4tPx8mULPbLntkXdMX-3" target="kT4tPx8mULPbLntkXdMX-10" edge="1"><mxGeometry x="-13" y="140.5" width="100" height="100" as="geometry"><mxPoint x="-13" y="240.5" as="sourcePoint"/><mxPoint x="87" y="140.5" as="targetPoint"/><Array as="points"><mxPoint x="212" y="580.5"/></Array></mxGeometry></mxCell><mxCell id="kT4tPx8mULPbLntkXdMX-18" value="" style="edgeStyle=elbowEdgeStyle;elbow=horizontal;strokeWidth=2;rounded=0" parent="1" source="kT4tPx8mULPbLntkXdMX-3" target="kT4tPx8mULPbLntkXdMX-11" edge="1"><mxGeometry x="-13" y="140.5" width="100" height="100" as="geometry"><mxPoint x="-13" y="240.5" as="sourcePoint"/><mxPoint x="87" y="140.5" as="targetPoint"/><Array as="points"><mxPoint x="212" y="620.5"/></Array></mxGeometry></mxCell><mxCell id="kT4tPx8mULPbLntkXdMX-19" value="" style="edgeStyle=elbowEdgeStyle;elbow=horizontal;strokeWidth=2;rounded=0" parent="1" source="kT4tPx8mULPbLntkXdMX-3" target="kT4tPx8mULPbLntkXdMX-12" edge="1"><mxGeometry x="-13" y="140.5" width="100" height="100" as="geometry"><mxPoint x="-13" y="240.5" as="sourcePoint"/><mxPoint x="87" y="140.5" as="targetPoint"/><Array as="points"><mxPoint x="212" y="670.5"/></Array></mxGeometry></mxCell><mxCell id="kT4tPx8mULPbLntkXdMX-20" value="" style="edgeStyle=elbowEdgeStyle;elbow=vertical;rounded=0;strokeWidth=2;backgroundOutline=0;" parent="1" source="kT4tPx8mULPbLntkXdMX-4" target="kT4tPx8mULPbLntkXdMX-6" edge="1"><mxGeometry x="-13" y="140.5" width="100" height="100" as="geometry"><mxPoint x="-13" y="240.5" as="sourcePoint"/><mxPoint x="87" y="140.5" as="targetPoint"/></mxGeometry></mxCell><mxCell id="kT4tPx8mULPbLntkXdMX-21" value="Browser Working&#10;Internally" style="rounded=1;fillColor=#23445D;gradientColor=none;strokeColor=none;fontColor=#FFFFFF;fontStyle=1;fontFamily=Tahoma;fontSize=14;backgroundOutline=0;" parent="1" vertex="1"><mxGeometry x="67" y="640.5" width="130" height="60" as="geometry"/></mxCell><mxCell id="kT4tPx8mULPbLntkXdMX-22" value="" style="fillColor=#FF1929;strokeColor=none;opacity=30;" parent="1" vertex="1"><mxGeometry x="40" y="440" width="160" height="280" as="geometry"/></mxCell><mxCell id="kT4tPx8mULPbLntkXdMX-23" value="" style="fillColor=#FFFFFF;strokeColor=none;opacity=30;" parent="1" vertex="1"><mxGeometry x="610.0000000000001" y="460.5000000000002" width="149.99999999999991" height="439.9999999999998" as="geometry"/></mxCell><mxCell id="kT4tPx8mULPbLntkXdMX-24" value="" style="fillColor=#10739E;strokeColor=none;opacity=30;" parent="1" vertex="1"><mxGeometry x="610" y="910.5" width="150" height="80" as="geometry"/></mxCell><mxCell id="kT4tPx8mULPbLntkXdMX-25" value="Collecti" style="rounded=1;fillColor=#23445D;gradientColor=none;strokeColor=none;fontColor=#FFFFFF;fontStyle=1;fontFamily=Tahoma;fontSize=14" parent="1" vertex="1"><mxGeometry x="490" y="340.5" width="190" height="80" as="geometry"/></mxCell><mxCell id="kT4tPx8mULPbLntkXdMX-26" value="" style="edgeStyle=orthogonalEdgeStyle;rounded=0;orthogonalLoop=1;jettySize=auto;html=1;backgroundOutline=0;" parent="1" edge="1"><mxGeometry relative="1" as="geometry"><mxPoint x="505" y="620.5" as="sourcePoint"/><mxPoint x="505" y="650.5" as="targetPoint"/></mxGeometry></mxCell><UserObject label="HTTPS" id="kT4tPx8mULPbLntkXdMX-27"><mxCell style="rounded=1;fillColor=#23445D;gradientColor=none;strokeColor=none;fontColor=#FFFFFF;fontStyle=1;fontFamily=Tahoma;fontSize=14" parent="1" vertex="1"><mxGeometry x="620" y="470.5" width="130" height="60" as="geometry"/></mxCell></UserObject><mxCell id="kT4tPx8mULPbLntkXdMX-28" value="Web Security" style="rounded=1;fillColor=#23445D;gradientColor=none;strokeColor=none;fontColor=#FFFFFF;fontStyle=1;fontFamily=Tahoma;fontSize=14" parent="1" vertex="1"><mxGeometry x="620" y="560.5" width="130" height="60" as="geometry"/></mxCell><mxCell id="kT4tPx8mULPbLntkXdMX-29" value="SSL &amp; TLS" style="rounded=1;fillColor=#23445D;gradientColor=none;strokeColor=none;fontColor=#FFFFFF;fontStyle=1;fontFamily=Tahoma;fontSize=14" parent="1" vertex="1"><mxGeometry x="620" y="650.5" width="130" height="60" as="geometry"/></mxCell><mxCell id="kT4tPx8mULPbLntkXdMX-30" value="CORS" style="rounded=1;fillColor=#23445D;gradientColor=none;strokeColor=none;fontColor=#FFFFFF;fontStyle=1;fontFamily=Tahoma;fontSize=14" parent="1" vertex="1"><mxGeometry x="620" y="740.5" width="130" height="60" as="geometry"/></mxCell><mxCell id="kT4tPx8mULPbLntkXdMX-31" value="Hashing &#10;Algorithm" style="rounded=1;fillColor=#23445D;gradientColor=none;strokeColor=none;fontColor=#FFFFFF;fontStyle=1;fontFamily=Tahoma;fontSize=14" parent="1" vertex="1"><mxGeometry x="620" y="830.5" width="130" height="60" as="geometry"/></mxCell><mxCell id="kT4tPx8mULPbLntkXdMX-32" value="Cashing" style="rounded=1;fillColor=#23445D;gradientColor=none;strokeColor=none;fontColor=#FFFFFF;fontStyle=1;fontFamily=Tahoma;fontSize=14" parent="1" vertex="1"><mxGeometry x="620" y="920.4999999999999" width="130" height="60" as="geometry"/></mxCell><mxCell id="kT4tPx8mULPbLntkXdMX-33" value="" style="edgeStyle=elbowEdgeStyle;elbow=vertical;strokeWidth=2;rounded=0" parent="1" source="kT4tPx8mULPbLntkXdMX-25" edge="1"><mxGeometry x="360" y="150.5" width="100" height="100" as="geometry"><mxPoint x="360" y="250.5" as="sourcePoint"/><mxPoint x="505" y="470.5" as="targetPoint"/></mxGeometry></mxCell><mxCell id="kT4tPx8mULPbLntkXdMX-34" value="" style="edgeStyle=elbowEdgeStyle;elbow=horizontal;strokeWidth=2;rounded=0" parent="1" source="kT4tPx8mULPbLntkXdMX-25" target="kT4tPx8mULPbLntkXdMX-27" edge="1"><mxGeometry x="360" y="150.5" width="100" height="100" as="geometry"><mxPoint x="360" y="250.5" as="sourcePoint"/><mxPoint x="460" y="150.5" as="targetPoint"/><Array as="points"><mxPoint x="585" y="450.5"/></Array></mxGeometry></mxCell><mxCell id="kT4tPx8mULPbLntkXdMX-35" value="" style="edgeStyle=elbowEdgeStyle;elbow=horizontal;strokeWidth=2;rounded=0" parent="1" source="kT4tPx8mULPbLntkXdMX-25" target="kT4tPx8mULPbLntkXdMX-28" edge="1"><mxGeometry x="360" y="150.5" width="100" height="100" as="geometry"><mxPoint x="360" y="250.5" as="sourcePoint"/><mxPoint x="460" y="150.5" as="targetPoint"/><Array as="points"><mxPoint x="585" y="490.5"/></Array></mxGeometry></mxCell><mxCell id="kT4tPx8mULPbLntkXdMX-36" value="" style="edgeStyle=elbowEdgeStyle;elbow=horizontal;strokeWidth=2;rounded=0" parent="1" source="kT4tPx8mULPbLntkXdMX-25" target="kT4tPx8mULPbLntkXdMX-29" edge="1"><mxGeometry x="360" y="150.5" width="100" height="100" as="geometry"><mxPoint x="360" y="250.5" as="sourcePoint"/><mxPoint x="460" y="150.5" as="targetPoint"/><Array as="points"><mxPoint x="585" y="540.5"/></Array></mxGeometry></mxCell><mxCell id="kT4tPx8mULPbLntkXdMX-37" value="" style="edgeStyle=elbowEdgeStyle;elbow=horizontal;strokeWidth=2;rounded=0" parent="1" source="kT4tPx8mULPbLntkXdMX-25" target="kT4tPx8mULPbLntkXdMX-30" edge="1"><mxGeometry x="360" y="150.5" width="100" height="100" as="geometry"><mxPoint x="360" y="250.5" as="sourcePoint"/><mxPoint x="460" y="150.5" as="targetPoint"/><Array as="points"><mxPoint x="585" y="590.5"/></Array></mxGeometry></mxCell><mxCell id="kT4tPx8mULPbLntkXdMX-38" value="" style="edgeStyle=elbowEdgeStyle;elbow=horizontal;strokeWidth=2;rounded=0" parent="1" source="kT4tPx8mULPbLntkXdMX-25" target="kT4tPx8mULPbLntkXdMX-31" edge="1"><mxGeometry x="360" y="150.5" width="100" height="100" as="geometry"><mxPoint x="360" y="250.5" as="sourcePoint"/><mxPoint x="460" y="150.5" as="targetPoint"/><Array as="points"><mxPoint x="585" y="630.5"/></Array></mxGeometry></mxCell><mxCell id="kT4tPx8mULPbLntkXdMX-39" value="" style="edgeStyle=elbowEdgeStyle;elbow=horizontal;strokeWidth=2;rounded=0" parent="1" source="kT4tPx8mULPbLntkXdMX-25" target="kT4tPx8mULPbLntkXdMX-32" edge="1"><mxGeometry x="360" y="150.5" width="100" height="100" as="geometry"><mxPoint x="360" y="250.5" as="sourcePoint"/><mxPoint x="460" y="150.5" as="targetPoint"/><Array as="points"><mxPoint x="585" y="680.5"/></Array></mxGeometry></mxCell><mxCell id="kT4tPx8mULPbLntkXdMX-40" value="" style="edgeStyle=elbowEdgeStyle;elbow=vertical;rounded=0;strokeWidth=2;backgroundOutline=0;" parent="1" edge="1"><mxGeometry x="360" y="150.5" width="100" height="100" as="geometry"><mxPoint x="505" y="530.5" as="sourcePoint"/><mxPoint x="505" y="560.5" as="targetPoint"/></mxGeometry></mxCell><mxCell id="kT4tPx8mULPbLntkXdMX-41" value="" style="edgeStyle=orthogonalEdgeStyle;rounded=0;orthogonalLoop=1;jettySize=auto;html=1;backgroundOutline=0;" parent="1" edge="1"><mxGeometry relative="1" as="geometry"><mxPoint x="142" y="620.5" as="sourcePoint"/><mxPoint x="142" y="650.5" as="targetPoint"/></mxGeometry></mxCell><mxCell id="kT4tPx8mULPbLntkXdMX-42" value="" style="edgeStyle=elbowEdgeStyle;elbow=vertical;rounded=0;strokeWidth=2;backgroundOutline=0;" parent="1" edge="1"><mxGeometry x="-3" y="150.5" width="100" height="100" as="geometry"><mxPoint x="142" y="530.5" as="sourcePoint"/><mxPoint x="142" y="560.5" as="targetPoint"/></mxGeometry></mxCell><UserObject label="SOAP" id="kT4tPx8mULPbLntkXdMX-43"><mxCell style="rounded=1;fillColor=#23445D;gradientColor=none;strokeColor=none;fontColor=#FFFFFF;fontStyle=1;fontFamily=Tahoma;fontSize=14" parent="1" vertex="1"><mxGeometry x="440" y="470.5" width="130" height="60" as="geometry"/></mxCell></UserObject><mxCell id="kT4tPx8mULPbLntkXdMX-44" value="REST" style="rounded=1;fillColor=#23445D;gradientColor=none;strokeColor=none;fontColor=#FFFFFF;fontStyle=1;fontFamily=Tahoma;fontSize=14" parent="1" vertex="1"><mxGeometry x="440" y="560.5" width="130" height="60" as="geometry"/></mxCell><mxCell id="kT4tPx8mULPbLntkXdMX-45" style="edgeStyle=orthogonalEdgeStyle;rounded=0;orthogonalLoop=1;jettySize=auto;html=1;exitX=0.5;exitY=1;exitDx=0;exitDy=0;entryX=0.5;entryY=0;entryDx=0;entryDy=0;strokeWidth=2;" parent="1" source="kT4tPx8mULPbLntkXdMX-46" target="kT4tPx8mULPbLntkXdMX-105" edge="1"><mxGeometry relative="1" as="geometry"/></mxCell><mxCell id="kT4tPx8mULPbLntkXdMX-46" value="APIs" style="rounded=1;fillColor=#23445D;gradientColor=none;strokeColor=none;fontColor=#FFFFFF;fontStyle=1;fontFamily=Tahoma;fontSize=14" parent="1" vertex="1"><mxGeometry x="440" y="650.5" width="130" height="60" as="geometry"/></mxCell><mxCell id="kT4tPx8mULPbLntkXdMX-47" style="edgeStyle=orthogonalEdgeStyle;rounded=0;orthogonalLoop=1;jettySize=auto;html=1;exitX=0.5;exitY=1;exitDx=0;exitDy=0;strokeWidth=2;" parent="1" source="kT4tPx8mULPbLntkXdMX-50" target="kT4tPx8mULPbLntkXdMX-3" edge="1"><mxGeometry relative="1" as="geometry"/></mxCell><mxCell id="kT4tPx8mULPbLntkXdMX-48" style="edgeStyle=orthogonalEdgeStyle;rounded=0;orthogonalLoop=1;jettySize=auto;html=1;exitX=0.5;exitY=1;exitDx=0;exitDy=0;entryX=0.5;entryY=0;entryDx=0;entryDy=0;strokeWidth=2;" parent="1" source="kT4tPx8mULPbLntkXdMX-50" target="kT4tPx8mULPbLntkXdMX-25" edge="1"><mxGeometry relative="1" as="geometry"/></mxCell><mxCell id="kT4tPx8mULPbLntkXdMX-49" style="edgeStyle=orthogonalEdgeStyle;rounded=0;orthogonalLoop=1;jettySize=auto;html=1;exitX=0.5;exitY=1;exitDx=0;exitDy=0;entryX=0.5;entryY=0;entryDx=0;entryDy=0;strokeWidth=2;" parent="1" source="kT4tPx8mULPbLntkXdMX-50" target="kT4tPx8mULPbLntkXdMX-70" edge="1"><mxGeometry relative="1" as="geometry"/></mxCell><mxCell id="kT4tPx8mULPbLntkXdMX-50" value="Java SE" style="rounded=1;fillColor=#23445D;gradientColor=none;strokeColor=none;fontColor=#FFFFFF;fontStyle=1;fontFamily=Tahoma;fontSize=14" parent="1" vertex="1"><mxGeometry x="490" y="180" width="190" height="80" as="geometry"/></mxCell><mxCell id="kT4tPx8mULPbLntkXdMX-51" value="" style="fillColor=#FFFFFF;strokeColor=none;opacity=30;" parent="1" vertex="1"><mxGeometry x="980.0000000000001" y="460.5000000000002" width="149.99999999999991" height="439.9999999999998" as="geometry"/></mxCell><mxCell id="kT4tPx8mULPbLntkXdMX-52" value="" style="edgeStyle=orthogonalEdgeStyle;rounded=0;orthogonalLoop=1;jettySize=auto;html=1;backgroundOutline=0;" parent="1" edge="1"><mxGeometry relative="1" as="geometry"><mxPoint x="875" y="620.5" as="sourcePoint"/><mxPoint x="875" y="650.5" as="targetPoint"/></mxGeometry></mxCell><UserObject label="HTTPS" id="kT4tPx8mULPbLntkXdMX-53"><mxCell style="rounded=1;fillColor=#23445D;gradientColor=none;strokeColor=none;fontColor=#FFFFFF;fontStyle=1;fontFamily=Tahoma;fontSize=14" parent="1" vertex="1"><mxGeometry x="990" y="470.5" width="130" height="60" as="geometry"/></mxCell></UserObject><mxCell id="kT4tPx8mULPbLntkXdMX-54" value="Web Security" style="rounded=1;fillColor=#23445D;gradientColor=none;strokeColor=none;fontColor=#FFFFFF;fontStyle=1;fontFamily=Tahoma;fontSize=14" parent="1" vertex="1"><mxGeometry x="990" y="560.5" width="130" height="60" as="geometry"/></mxCell><mxCell id="kT4tPx8mULPbLntkXdMX-55" value="SSL &amp; TLS" style="rounded=1;fillColor=#23445D;gradientColor=none;strokeColor=none;fontColor=#FFFFFF;fontStyle=1;fontFamily=Tahoma;fontSize=14" parent="1" vertex="1"><mxGeometry x="990" y="650.5" width="130" height="60" as="geometry"/></mxCell><mxCell id="kT4tPx8mULPbLntkXdMX-56" value="CORS" style="rounded=1;fillColor=#23445D;gradientColor=none;strokeColor=none;fontColor=#FFFFFF;fontStyle=1;fontFamily=Tahoma;fontSize=14" parent="1" vertex="1"><mxGeometry x="990" y="740.5" width="130" height="60" as="geometry"/></mxCell><mxCell id="kT4tPx8mULPbLntkXdMX-57" value="Hashing &#10;Algorithm" style="rounded=1;fillColor=#23445D;gradientColor=none;strokeColor=none;fontColor=#FFFFFF;fontStyle=1;fontFamily=Tahoma;fontSize=14" parent="1" vertex="1"><mxGeometry x="990" y="830.5" width="130" height="60" as="geometry"/></mxCell><mxCell id="kT4tPx8mULPbLntkXdMX-58" value="Cashing" style="rounded=1;fillColor=#23445D;gradientColor=none;strokeColor=none;fontColor=#FFFFFF;fontStyle=1;fontFamily=Tahoma;fontSize=14" parent="1" vertex="1"><mxGeometry x="990" y="915.4999999999999" width="130" height="60" as="geometry"/></mxCell><mxCell id="kT4tPx8mULPbLntkXdMX-59" value="" style="edgeStyle=elbowEdgeStyle;elbow=vertical;strokeWidth=2;rounded=0" parent="1" edge="1"><mxGeometry x="730" y="150.5" width="100" height="100" as="geometry"><mxPoint x="955" y="420.5" as="sourcePoint"/><mxPoint x="875" y="470.5" as="targetPoint"/></mxGeometry></mxCell><mxCell id="kT4tPx8mULPbLntkXdMX-60" value="" style="edgeStyle=elbowEdgeStyle;elbow=horizontal;strokeWidth=2;rounded=0" parent="1" target="kT4tPx8mULPbLntkXdMX-53" edge="1"><mxGeometry x="730" y="150.5" width="100" height="100" as="geometry"><mxPoint x="955" y="420.5" as="sourcePoint"/><mxPoint x="830" y="150.5" as="targetPoint"/><Array as="points"><mxPoint x="955" y="450.5"/></Array></mxGeometry></mxCell><mxCell id="kT4tPx8mULPbLntkXdMX-61" value="" style="edgeStyle=elbowEdgeStyle;elbow=horizontal;strokeWidth=2;rounded=0" parent="1" target="kT4tPx8mULPbLntkXdMX-54" edge="1"><mxGeometry x="730" y="150.5" width="100" height="100" as="geometry"><mxPoint x="955" y="420.5" as="sourcePoint"/><mxPoint x="830" y="150.5" as="targetPoint"/><Array as="points"><mxPoint x="955" y="490.5"/></Array></mxGeometry></mxCell><mxCell id="kT4tPx8mULPbLntkXdMX-62" value="" style="edgeStyle=elbowEdgeStyle;elbow=horizontal;strokeWidth=2;rounded=0" parent="1" target="kT4tPx8mULPbLntkXdMX-55" edge="1"><mxGeometry x="730" y="150.5" width="100" height="100" as="geometry"><mxPoint x="955" y="420.5" as="sourcePoint"/><mxPoint x="830" y="150.5" as="targetPoint"/><Array as="points"><mxPoint x="955" y="540.5"/></Array></mxGeometry></mxCell><mxCell id="kT4tPx8mULPbLntkXdMX-63" value="" style="edgeStyle=elbowEdgeStyle;elbow=horizontal;strokeWidth=2;rounded=0" parent="1" target="kT4tPx8mULPbLntkXdMX-56" edge="1"><mxGeometry x="730" y="150.5" width="100" height="100" as="geometry"><mxPoint x="955" y="420.5" as="sourcePoint"/><mxPoint x="830" y="150.5" as="targetPoint"/><Array as="points"><mxPoint x="955" y="590.5"/></Array></mxGeometry></mxCell><mxCell id="kT4tPx8mULPbLntkXdMX-64" value="" style="edgeStyle=elbowEdgeStyle;elbow=horizontal;strokeWidth=2;rounded=0" parent="1" target="kT4tPx8mULPbLntkXdMX-57" edge="1"><mxGeometry x="730" y="150.5" width="100" height="100" as="geometry"><mxPoint x="955" y="420.5" as="sourcePoint"/><mxPoint x="830" y="150.5" as="targetPoint"/><Array as="points"><mxPoint x="955" y="630.5"/></Array></mxGeometry></mxCell><mxCell id="kT4tPx8mULPbLntkXdMX-65" value="" style="edgeStyle=elbowEdgeStyle;elbow=horizontal;strokeWidth=2;rounded=0" parent="1" edge="1"><mxGeometry x="730" y="150.5" width="100" height="100" as="geometry"><mxPoint x="955" y="420.5" as="sourcePoint"/><mxPoint x="990" y="950.5" as="targetPoint"/><Array as="points"><mxPoint x="955" y="680.5"/></Array></mxGeometry></mxCell><mxCell id="kT4tPx8mULPbLntkXdMX-66" value="" style="edgeStyle=elbowEdgeStyle;elbow=vertical;rounded=0;strokeWidth=2;backgroundOutline=0;" parent="1" edge="1"><mxGeometry x="730" y="150.5" width="100" height="100" as="geometry"><mxPoint x="875" y="530.5" as="sourcePoint"/><mxPoint x="875" y="560.5" as="targetPoint"/></mxGeometry></mxCell><UserObject label="SOAP" id="kT4tPx8mULPbLntkXdMX-67"><mxCell style="rounded=1;fillColor=#23445D;gradientColor=none;strokeColor=none;fontColor=#FFFFFF;fontStyle=1;fontFamily=Tahoma;fontSize=14" parent="1" vertex="1"><mxGeometry x="810" y="470.5" width="130" height="60" as="geometry"/></mxCell></UserObject><mxCell id="kT4tPx8mULPbLntkXdMX-68" value="REST" style="rounded=1;fillColor=#23445D;gradientColor=none;strokeColor=none;fontColor=#FFFFFF;fontStyle=1;fontFamily=Tahoma;fontSize=14" parent="1" vertex="1"><mxGeometry x="810" y="560.5" width="130" height="60" as="geometry"/></mxCell><mxCell id="kT4tPx8mULPbLntkXdMX-69" value="APIs" style="rounded=1;fillColor=#23445D;gradientColor=none;strokeColor=none;fontColor=#FFFFFF;fontStyle=1;fontFamily=Tahoma;fontSize=14" parent="1" vertex="1"><mxGeometry x="810" y="650.5" width="130" height="60" as="geometry"/></mxCell><mxCell id="kT4tPx8mULPbLntkXdMX-70" value="Advance Tools" style="rounded=1;fillColor=#23445D;gradientColor=none;strokeColor=none;fontColor=#FFFFFF;fontStyle=1;fontFamily=Tahoma;fontSize=14" parent="1" vertex="1"><mxGeometry x="860" y="340.5" width="190" height="80" as="geometry"/></mxCell><mxCell id="kT4tPx8mULPbLntkXdMX-71" style="edgeStyle=orthogonalEdgeStyle;rounded=0;orthogonalLoop=1;jettySize=auto;html=1;exitX=0.5;exitY=1;exitDx=0;exitDy=0;strokeWidth=2;" parent="1" source="kT4tPx8mULPbLntkXdMX-72" target="kT4tPx8mULPbLntkXdMX-74" edge="1"><mxGeometry relative="1" as="geometry"/></mxCell><UserObject label="SOLID" id="kT4tPx8mULPbLntkXdMX-72"><mxCell style="rounded=1;fillColor=#23445D;gradientColor=none;strokeColor=none;fontColor=#FFFFFF;fontStyle=1;fontFamily=Tahoma;fontSize=14;strokeWidth=1;dashed=1;" parent="1" vertex="1"><mxGeometry x="1170" y="470.5" width="130" height="60" as="geometry"/></mxCell></UserObject><mxCell id="kT4tPx8mULPbLntkXdMX-73" style="edgeStyle=orthogonalEdgeStyle;rounded=0;orthogonalLoop=1;jettySize=auto;html=1;exitX=0.5;exitY=1;exitDx=0;exitDy=0;strokeWidth=2;" parent="1" source="kT4tPx8mULPbLntkXdMX-74" target="kT4tPx8mULPbLntkXdMX-76" edge="1"><mxGeometry relative="1" as="geometry"/></mxCell><mxCell id="kT4tPx8mULPbLntkXdMX-74" value="KISS" style="rounded=1;fillColor=#23445D;gradientColor=none;strokeColor=none;fontColor=#FFFFFF;fontStyle=1;fontFamily=Tahoma;fontSize=14;strokeWidth=1;dashed=1;" parent="1" vertex="1"><mxGeometry x="1170" y="560.5" width="130" height="60" as="geometry"/></mxCell><mxCell id="kT4tPx8mULPbLntkXdMX-75" style="edgeStyle=orthogonalEdgeStyle;rounded=0;orthogonalLoop=1;jettySize=auto;html=1;exitX=0.5;exitY=1;exitDx=0;exitDy=0;entryX=0.5;entryY=0;entryDx=0;entryDy=0;strokeWidth=2;" parent="1" source="kT4tPx8mULPbLntkXdMX-76" target="kT4tPx8mULPbLntkXdMX-77" edge="1"><mxGeometry relative="1" as="geometry"/></mxCell><mxCell id="kT4tPx8mULPbLntkXdMX-76" value="Yagni" style="rounded=1;fillColor=#23445D;gradientColor=none;strokeColor=none;fontColor=#FFFFFF;fontStyle=1;fontFamily=Tahoma;fontSize=14;strokeWidth=1;dashed=1;" parent="1" vertex="1"><mxGeometry x="1170" y="650.5" width="130" height="60" as="geometry"/></mxCell><mxCell id="kT4tPx8mULPbLntkXdMX-77" value="DRY" style="rounded=1;fillColor=#23445D;gradientColor=none;strokeColor=none;fontColor=#FFFFFF;fontStyle=1;fontFamily=Tahoma;fontSize=14;strokeWidth=1;dashed=1;" parent="1" vertex="1"><mxGeometry x="1170" y="740.5" width="130" height="60" as="geometry"/></mxCell><mxCell id="kT4tPx8mULPbLntkXdMX-78" style="edgeStyle=orthogonalEdgeStyle;rounded=0;orthogonalLoop=1;jettySize=auto;html=1;exitX=0.5;exitY=1;exitDx=0;exitDy=0;strokeWidth=2;" parent="1" source="kT4tPx8mULPbLntkXdMX-79" target="kT4tPx8mULPbLntkXdMX-81" edge="1"><mxGeometry relative="1" as="geometry"/></mxCell><UserObject label="Architectural &#10;Pattern" id="kT4tPx8mULPbLntkXdMX-79"><mxCell style="rounded=1;fillColor=#23445D;gradientColor=none;strokeColor=none;fontColor=#FFFFFF;fontStyle=1;fontFamily=Tahoma;fontSize=14;strokeWidth=1;dashed=1;" parent="1" vertex="1"><mxGeometry x="1350" y="470.5" width="130" height="60" as="geometry"/></mxCell></UserObject><mxCell id="kT4tPx8mULPbLntkXdMX-80" style="edgeStyle=orthogonalEdgeStyle;rounded=0;orthogonalLoop=1;jettySize=auto;html=1;exitX=0.5;exitY=1;exitDx=0;exitDy=0;strokeWidth=2;" parent="1" source="kT4tPx8mULPbLntkXdMX-81" target="kT4tPx8mULPbLntkXdMX-83" edge="1"><mxGeometry relative="1" as="geometry"/></mxCell><mxCell id="kT4tPx8mULPbLntkXdMX-81" value="Microservices" style="rounded=1;fillColor=#23445D;gradientColor=none;strokeColor=none;fontColor=#FFFFFF;fontStyle=1;fontFamily=Tahoma;fontSize=14;strokeWidth=1;dashed=1;" parent="1" vertex="1"><mxGeometry x="1350" y="560.5" width="130" height="60" as="geometry"/></mxCell><mxCell id="kT4tPx8mULPbLntkXdMX-82" style="edgeStyle=orthogonalEdgeStyle;rounded=0;orthogonalLoop=1;jettySize=auto;html=1;exitX=0.5;exitY=1;exitDx=0;exitDy=0;entryX=0.5;entryY=0;entryDx=0;entryDy=0;strokeWidth=2;" parent="1" source="kT4tPx8mULPbLntkXdMX-83" target="kT4tPx8mULPbLntkXdMX-84" edge="1"><mxGeometry relative="1" as="geometry"/></mxCell><mxCell id="kT4tPx8mULPbLntkXdMX-83" value="Search &#10;Engines" style="rounded=1;fillColor=#23445D;gradientColor=none;strokeColor=none;fontColor=#FFFFFF;fontStyle=1;fontFamily=Tahoma;fontSize=14;strokeWidth=1;dashed=1;" parent="1" vertex="1"><mxGeometry x="1350" y="650.5" width="130" height="60" as="geometry"/></mxCell><mxCell id="kT4tPx8mULPbLntkXdMX-84" value="DRY" style="rounded=1;fillColor=#23445D;gradientColor=none;strokeColor=none;fontColor=#FFFFFF;fontStyle=1;fontFamily=Tahoma;fontSize=14;strokeWidth=1;dashed=1;" parent="1" vertex="1"><mxGeometry x="1350" y="740.5" width="130" height="60" as="geometry"/></mxCell><mxCell id="kT4tPx8mULPbLntkXdMX-85" value="" style="fillColor=#FFFFFF;strokeColor=none;opacity=30;" parent="1" vertex="1"><mxGeometry x="1710" y="483.0000000000002" width="149.99999999999991" height="439.9999999999998" as="geometry"/></mxCell><mxCell id="kT4tPx8mULPbLntkXdMX-86" value="" style="edgeStyle=orthogonalEdgeStyle;rounded=0;orthogonalLoop=1;jettySize=auto;html=1;backgroundOutline=0;" parent="1" edge="1"><mxGeometry relative="1" as="geometry"><mxPoint x="1605" y="643" as="sourcePoint"/><mxPoint x="1605" y="673" as="targetPoint"/></mxGeometry></mxCell><UserObject label="Docker" id="kT4tPx8mULPbLntkXdMX-87"><mxCell style="rounded=1;fillColor=#23445D;gradientColor=none;strokeColor=none;fontColor=#FFFFFF;fontStyle=1;fontFamily=Tahoma;fontSize=14" parent="1" vertex="1"><mxGeometry x="1720" y="493" width="130" height="60" as="geometry"/></mxCell></UserObject><mxCell id="kT4tPx8mULPbLntkXdMX-88" value="Containerization&#10;Virtualization&#10;Kafka" style="rounded=1;fillColor=#23445D;gradientColor=none;strokeColor=none;fontColor=#FFFFFF;fontStyle=1;fontFamily=Tahoma;fontSize=14" parent="1" vertex="1"><mxGeometry x="1720" y="583" width="130" height="60" as="geometry"/></mxCell><mxCell id="kT4tPx8mULPbLntkXdMX-89" value="GraphCL/ &#10;Graph Database" style="rounded=1;fillColor=#23445D;gradientColor=none;strokeColor=none;fontColor=#FFFFFF;fontStyle=1;fontFamily=Tahoma;fontSize=14" parent="1" vertex="1"><mxGeometry x="1720" y="673" width="130" height="60" as="geometry"/></mxCell><mxCell id="kT4tPx8mULPbLntkXdMX-90" value="WebSockets&#10;Web Server" style="rounded=1;fillColor=#23445D;gradientColor=none;strokeColor=none;fontColor=#FFFFFF;fontStyle=1;fontFamily=Tahoma;fontSize=14" parent="1" vertex="1"><mxGeometry x="1720" y="763" width="130" height="60" as="geometry"/></mxCell><mxCell id="kT4tPx8mULPbLntkXdMX-91" value="Hashing &#10;Algorithm" style="rounded=1;fillColor=#23445D;gradientColor=none;strokeColor=none;fontColor=#FFFFFF;fontStyle=1;fontFamily=Tahoma;fontSize=14" parent="1" vertex="1"><mxGeometry x="1720" y="853" width="130" height="60" as="geometry"/></mxCell><mxCell id="kT4tPx8mULPbLntkXdMX-92" value="Cashing" style="rounded=1;fillColor=#23445D;gradientColor=none;strokeColor=none;fontColor=#FFFFFF;fontStyle=1;fontFamily=Tahoma;fontSize=14" parent="1" vertex="1"><mxGeometry x="1720" y="937.9999999999999" width="130" height="60" as="geometry"/></mxCell><mxCell id="kT4tPx8mULPbLntkXdMX-93" value="" style="edgeStyle=elbowEdgeStyle;elbow=vertical;strokeWidth=2;rounded=0" parent="1" edge="1"><mxGeometry x="1460" y="173" width="100" height="100" as="geometry"><mxPoint x="1685" y="443" as="sourcePoint"/><mxPoint x="1605" y="493" as="targetPoint"/></mxGeometry></mxCell><mxCell id="kT4tPx8mULPbLntkXdMX-94" value="" style="edgeStyle=elbowEdgeStyle;elbow=horizontal;strokeWidth=2;rounded=0" parent="1" target="kT4tPx8mULPbLntkXdMX-87" edge="1"><mxGeometry x="1460" y="173" width="100" height="100" as="geometry"><mxPoint x="1685" y="443" as="sourcePoint"/><mxPoint x="1560" y="173" as="targetPoint"/><Array as="points"><mxPoint x="1685" y="473"/></Array></mxGeometry></mxCell><mxCell id="kT4tPx8mULPbLntkXdMX-95" value="" style="edgeStyle=elbowEdgeStyle;elbow=horizontal;strokeWidth=2;rounded=0" parent="1" target="kT4tPx8mULPbLntkXdMX-88" edge="1"><mxGeometry x="1460" y="173" width="100" height="100" as="geometry"><mxPoint x="1685" y="443" as="sourcePoint"/><mxPoint x="1560" y="173" as="targetPoint"/><Array as="points"><mxPoint x="1685" y="513"/></Array></mxGeometry></mxCell><mxCell id="kT4tPx8mULPbLntkXdMX-96" value="" style="edgeStyle=elbowEdgeStyle;elbow=horizontal;strokeWidth=2;rounded=0" parent="1" target="kT4tPx8mULPbLntkXdMX-89" edge="1"><mxGeometry x="1460" y="173" width="100" height="100" as="geometry"><mxPoint x="1685" y="443" as="sourcePoint"/><mxPoint x="1560" y="173" as="targetPoint"/><Array as="points"><mxPoint x="1685" y="563"/></Array></mxGeometry></mxCell><mxCell id="kT4tPx8mULPbLntkXdMX-97" value="" style="edgeStyle=elbowEdgeStyle;elbow=horizontal;strokeWidth=2;rounded=0" parent="1" target="kT4tPx8mULPbLntkXdMX-90" edge="1"><mxGeometry x="1460" y="173" width="100" height="100" as="geometry"><mxPoint x="1685" y="443" as="sourcePoint"/><mxPoint x="1560" y="173" as="targetPoint"/><Array as="points"><mxPoint x="1685" y="613"/></Array></mxGeometry></mxCell><mxCell id="kT4tPx8mULPbLntkXdMX-98" value="" style="edgeStyle=elbowEdgeStyle;elbow=horizontal;strokeWidth=2;rounded=0" parent="1" target="kT4tPx8mULPbLntkXdMX-91" edge="1"><mxGeometry x="1460" y="173" width="100" height="100" as="geometry"><mxPoint x="1685" y="443" as="sourcePoint"/><mxPoint x="1560" y="173" as="targetPoint"/><Array as="points"><mxPoint x="1685" y="653"/></Array></mxGeometry></mxCell><mxCell id="kT4tPx8mULPbLntkXdMX-99" value="" style="edgeStyle=elbowEdgeStyle;elbow=horizontal;strokeWidth=2;rounded=0" parent="1" edge="1"><mxGeometry x="1460" y="173" width="100" height="100" as="geometry"><mxPoint x="1685" y="443" as="sourcePoint"/><mxPoint x="1720" y="973" as="targetPoint"/><Array as="points"><mxPoint x="1685" y="703"/></Array></mxGeometry></mxCell><mxCell id="kT4tPx8mULPbLntkXdMX-100" value="" style="edgeStyle=elbowEdgeStyle;elbow=vertical;rounded=0;strokeWidth=2;backgroundOutline=0;" parent="1" edge="1"><mxGeometry x="1460" y="173" width="100" height="100" as="geometry"><mxPoint x="1605" y="553" as="sourcePoint"/><mxPoint x="1605" y="583" as="targetPoint"/></mxGeometry></mxCell><UserObject label="Message Broker" id="kT4tPx8mULPbLntkXdMX-101"><mxCell style="rounded=1;fillColor=#23445D;gradientColor=none;strokeColor=none;fontColor=#FFFFFF;fontStyle=1;fontFamily=Tahoma;fontSize=14" parent="1" vertex="1"><mxGeometry x="1540" y="493" width="130" height="60" as="geometry"/></mxCell></UserObject><mxCell id="kT4tPx8mULPbLntkXdMX-102" value="RabitMQ" style="rounded=1;fillColor=#23445D;gradientColor=none;strokeColor=none;fontColor=#FFFFFF;fontStyle=1;fontFamily=Tahoma;fontSize=14" parent="1" vertex="1"><mxGeometry x="1540" y="583" width="130" height="60" as="geometry"/></mxCell><mxCell id="kT4tPx8mULPbLntkXdMX-103" value="" style="rounded=1;fillColor=#23445D;gradientColor=none;strokeColor=none;fontColor=#FFFFFF;fontStyle=1;fontFamily=Tahoma;fontSize=14" parent="1" vertex="1"><mxGeometry x="1540" y="673" width="130" height="60" as="geometry"/></mxCell><mxCell id="kT4tPx8mULPbLntkXdMX-104" value="CI/CD &amp;&#10;Deployements" style="rounded=1;fillColor=#23445D;gradientColor=none;strokeColor=none;fontColor=#FFFFFF;fontStyle=1;fontFamily=Tahoma;fontSize=14" parent="1" vertex="1"><mxGeometry x="1590" y="363" width="190" height="80" as="geometry"/></mxCell><mxCell id="kT4tPx8mULPbLntkXdMX-105" value="JSON" style="rounded=1;fillColor=#23445D;gradientColor=none;strokeColor=none;fontColor=#FFFFFF;fontStyle=1;fontFamily=Tahoma;fontSize=14" parent="1" vertex="1"><mxGeometry x="440" y="740.5" width="130" height="60" as="geometry"/></mxCell></root></mxGraphModel></diagram><diagram id="XtQ3zb18V2y7jLcWNcHt" name="Backend Dev RoadMap"><mxGraphModel dx="1683" dy="1068" grid="1" gridSize="10" guides="1" tooltips="1" connect="1" arrows="1" fold="1" page="1" pageScale="1" pageWidth="850" pageHeight="1100" math="0" shadow="0"><root><mxCell id="0"/><mxCell id="1" parent="0"/><mxCell id="xVI_fUdbiuONRVINJM_F-1" value="" style="fillColor=#FFFFFF;strokeColor=none;opacity=30;" vertex="1" parent="1"><mxGeometry x="227.00000000000009" y="445.5000000000002" width="149.99999999999991" height="439.9999999999998" as="geometry"/></mxCell><mxCell id="xVI_fUdbiuONRVINJM_F-2" value="" style="fillColor=#10739E;strokeColor=none;opacity=30;" vertex="1" parent="1"><mxGeometry x="226.99999999999997" y="895.5" width="150" height="80" as="geometry"/></mxCell><mxCell id="xVI_fUdbiuONRVINJM_F-3" value="Backend Developer" style="rounded=1;fillColor=#23445D;gradientColor=none;strokeColor=none;fontColor=#FFFFFF;fontStyle=1;fontFamily=Tahoma;fontSize=14" vertex="1" parent="1"><mxGeometry x="117" y="340.5" width="190" height="80" as="geometry"/></mxCell><mxCell id="xVI_fUdbiuONRVINJM_F-4" value="How Web&#10; Works?" style="rounded=1;fillColor=#23445D;gradientColor=none;strokeColor=none;fontColor=#FFFFFF;fontStyle=1;fontFamily=Tahoma;fontSize=14;backgroundOutline=0;" vertex="1" parent="1"><mxGeometry x="67" y="460.5" width="130" height="60" as="geometry"/></mxCell><mxCell id="xVI_fUdbiuONRVINJM_F-5" value="" style="edgeStyle=orthogonalEdgeStyle;rounded=0;orthogonalLoop=1;jettySize=auto;html=1;backgroundOutline=0;" edge="1" parent="1" source="xVI_fUdbiuONRVINJM_F-6" target="xVI_fUdbiuONRVINJM_F-21"><mxGeometry relative="1" as="geometry"/></mxCell><mxCell id="xVI_fUdbiuONRVINJM_F-6" value="What is HTTP?" style="rounded=1;fillColor=#23445D;gradientColor=none;strokeColor=none;fontColor=#FFFFFF;fontStyle=1;fontFamily=Tahoma;fontSize=14;backgroundOutline=0;" vertex="1" parent="1"><mxGeometry x="67" y="550.5" width="130" height="60" as="geometry"/></mxCell><UserObject label="Java SE" id="xVI_fUdbiuONRVINJM_F-7"><mxCell style="rounded=1;fillColor=#23445D;gradientColor=none;strokeColor=none;fontColor=#FFFFFF;fontStyle=1;fontFamily=Tahoma;fontSize=14" vertex="1" parent="1"><mxGeometry x="247" y="460.5" width="130" height="60" as="geometry"/></mxCell></UserObject><mxCell id="xVI_fUdbiuONRVINJM_F-8" value="Java EE" style="rounded=1;fillColor=#23445D;gradientColor=none;strokeColor=none;fontColor=#FFFFFF;fontStyle=1;fontFamily=Tahoma;fontSize=14" vertex="1" parent="1"><mxGeometry x="247" y="550.5" width="130" height="60" as="geometry"/></mxCell><mxCell id="xVI_fUdbiuONRVINJM_F-9" value="Spring &#10;Framework" style="rounded=1;fillColor=#23445D;gradientColor=none;strokeColor=none;fontColor=#FFFFFF;fontStyle=1;fontFamily=Tahoma;fontSize=14" vertex="1" parent="1"><mxGeometry x="247" y="640.5" width="130" height="60" as="geometry"/></mxCell><mxCell id="xVI_fUdbiuONRVINJM_F-10" value="" style="rounded=1;fillColor=#23445D;gradientColor=none;strokeColor=none;fontColor=#FFFFFF;fontStyle=1;fontFamily=Tahoma;fontSize=14" vertex="1" parent="1"><mxGeometry x="247" y="730.5" width="130" height="60" as="geometry"/></mxCell><mxCell id="xVI_fUdbiuONRVINJM_F-11" value="" style="rounded=1;fillColor=#23445D;gradientColor=none;strokeColor=none;fontColor=#FFFFFF;fontStyle=1;fontFamily=Tahoma;fontSize=14" vertex="1" parent="1"><mxGeometry x="247" y="820.5" width="130" height="60" as="geometry"/></mxCell><mxCell id="xVI_fUdbiuONRVINJM_F-12" value="" style="rounded=1;fillColor=#23445D;gradientColor=none;strokeColor=none;fontColor=#FFFFFF;fontStyle=1;fontFamily=Tahoma;fontSize=14" vertex="1" parent="1"><mxGeometry x="247" y="910.4999999999999" width="130" height="60" as="geometry"/></mxCell><mxCell id="xVI_fUdbiuONRVINJM_F-13" value="" style="edgeStyle=elbowEdgeStyle;elbow=vertical;strokeWidth=2;rounded=0" edge="1" parent="1" source="xVI_fUdbiuONRVINJM_F-3" target="xVI_fUdbiuONRVINJM_F-4"><mxGeometry x="-13" y="140.5" width="100" height="100" as="geometry"><mxPoint x="-13" y="240.5" as="sourcePoint"/><mxPoint x="87" y="140.5" as="targetPoint"/></mxGeometry></mxCell><mxCell id="xVI_fUdbiuONRVINJM_F-14" value="" style="edgeStyle=elbowEdgeStyle;elbow=horizontal;strokeWidth=2;rounded=0" edge="1" parent="1" source="xVI_fUdbiuONRVINJM_F-3" target="xVI_fUdbiuONRVINJM_F-7"><mxGeometry x="-13" y="140.5" width="100" height="100" as="geometry"><mxPoint x="-13" y="240.5" as="sourcePoint"/><mxPoint x="87" y="140.5" as="targetPoint"/><Array as="points"><mxPoint x="212" y="440.5"/></Array></mxGeometry></mxCell><mxCell id="xVI_fUdbiuONRVINJM_F-15" value="" style="edgeStyle=elbowEdgeStyle;elbow=horizontal;strokeWidth=2;rounded=0" edge="1" parent="1" source="xVI_fUdbiuONRVINJM_F-3" target="xVI_fUdbiuONRVINJM_F-8"><mxGeometry x="-13" y="140.5" width="100" height="100" as="geometry"><mxPoint x="-13" y="240.5" as="sourcePoint"/><mxPoint x="87" y="140.5" as="targetPoint"/><Array as="points"><mxPoint x="212" y="480.5"/></Array></mxGeometry></mxCell><mxCell id="xVI_fUdbiuONRVINJM_F-16" value="" style="edgeStyle=elbowEdgeStyle;elbow=horizontal;strokeWidth=2;rounded=0" edge="1" parent="1" source="xVI_fUdbiuONRVINJM_F-3" target="xVI_fUdbiuONRVINJM_F-9"><mxGeometry x="-13" y="140.5" width="100" height="100" as="geometry"><mxPoint x="-13" y="240.5" as="sourcePoint"/><mxPoint x="87" y="140.5" as="targetPoint"/><Array as="points"><mxPoint x="212" y="530.5"/></Array></mxGeometry></mxCell><mxCell id="xVI_fUdbiuONRVINJM_F-17" value="" style="edgeStyle=elbowEdgeStyle;elbow=horizontal;strokeWidth=2;rounded=0" edge="1" parent="1" source="xVI_fUdbiuONRVINJM_F-3" target="xVI_fUdbiuONRVINJM_F-10"><mxGeometry x="-13" y="140.5" width="100" height="100" as="geometry"><mxPoint x="-13" y="240.5" as="sourcePoint"/><mxPoint x="87" y="140.5" as="targetPoint"/><Array as="points"><mxPoint x="212" y="580.5"/></Array></mxGeometry></mxCell><mxCell id="xVI_fUdbiuONRVINJM_F-18" value="" style="edgeStyle=elbowEdgeStyle;elbow=horizontal;strokeWidth=2;rounded=0" edge="1" parent="1" source="xVI_fUdbiuONRVINJM_F-3" target="xVI_fUdbiuONRVINJM_F-11"><mxGeometry x="-13" y="140.5" width="100" height="100" as="geometry"><mxPoint x="-13" y="240.5" as="sourcePoint"/><mxPoint x="87" y="140.5" as="targetPoint"/><Array as="points"><mxPoint x="212" y="620.5"/></Array></mxGeometry></mxCell><mxCell id="xVI_fUdbiuONRVINJM_F-19" value="" style="edgeStyle=elbowEdgeStyle;elbow=horizontal;strokeWidth=2;rounded=0" edge="1" parent="1" source="xVI_fUdbiuONRVINJM_F-3" target="xVI_fUdbiuONRVINJM_F-12"><mxGeometry x="-13" y="140.5" width="100" height="100" as="geometry"><mxPoint x="-13" y="240.5" as="sourcePoint"/><mxPoint x="87" y="140.5" as="targetPoint"/><Array as="points"><mxPoint x="212" y="670.5"/></Array></mxGeometry></mxCell><mxCell id="xVI_fUdbiuONRVINJM_F-20" value="" style="edgeStyle=elbowEdgeStyle;elbow=vertical;rounded=0;strokeWidth=2;backgroundOutline=0;" edge="1" parent="1" source="xVI_fUdbiuONRVINJM_F-4" target="xVI_fUdbiuONRVINJM_F-6"><mxGeometry x="-13" y="140.5" width="100" height="100" as="geometry"><mxPoint x="-13" y="240.5" as="sourcePoint"/><mxPoint x="87" y="140.5" as="targetPoint"/></mxGeometry></mxCell><mxCell id="xVI_fUdbiuONRVINJM_F-21" value="Browser Working&#10;Internally" style="rounded=1;fillColor=#23445D;gradientColor=none;strokeColor=none;fontColor=#FFFFFF;fontStyle=1;fontFamily=Tahoma;fontSize=14;backgroundOutline=0;" vertex="1" parent="1"><mxGeometry x="67" y="640.5" width="130" height="60" as="geometry"/></mxCell><mxCell id="xVI_fUdbiuONRVINJM_F-22" value="" style="fillColor=#FF1929;strokeColor=none;opacity=30;" vertex="1" parent="1"><mxGeometry x="40" y="440" width="160" height="280" as="geometry"/></mxCell><mxCell id="xVI_fUdbiuONRVINJM_F-23" value="" style="fillColor=#FFFFFF;strokeColor=none;opacity=30;" vertex="1" parent="1"><mxGeometry x="610.0000000000001" y="460.5000000000002" width="149.99999999999991" height="439.9999999999998" as="geometry"/></mxCell><mxCell id="xVI_fUdbiuONRVINJM_F-24" value="" style="fillColor=#10739E;strokeColor=none;opacity=30;" vertex="1" parent="1"><mxGeometry x="610" y="910.5" width="150" height="80" as="geometry"/></mxCell><mxCell id="xVI_fUdbiuONRVINJM_F-25" value="API Management &amp;&#10;Security" style="rounded=1;fillColor=#23445D;gradientColor=none;strokeColor=none;fontColor=#FFFFFF;fontStyle=1;fontFamily=Tahoma;fontSize=14" vertex="1" parent="1"><mxGeometry x="490" y="340.5" width="190" height="80" as="geometry"/></mxCell><mxCell id="xVI_fUdbiuONRVINJM_F-26" value="" style="edgeStyle=orthogonalEdgeStyle;rounded=0;orthogonalLoop=1;jettySize=auto;html=1;backgroundOutline=0;" edge="1" parent="1"><mxGeometry relative="1" as="geometry"><mxPoint x="505" y="620.5" as="sourcePoint"/><mxPoint x="505" y="650.5" as="targetPoint"/></mxGeometry></mxCell><UserObject label="HTTPS" id="xVI_fUdbiuONRVINJM_F-27"><mxCell style="rounded=1;fillColor=#23445D;gradientColor=none;strokeColor=none;fontColor=#FFFFFF;fontStyle=1;fontFamily=Tahoma;fontSize=14" vertex="1" parent="1"><mxGeometry x="620" y="470.5" width="130" height="60" as="geometry"/></mxCell></UserObject><mxCell id="xVI_fUdbiuONRVINJM_F-28" value="Web Security" style="rounded=1;fillColor=#23445D;gradientColor=none;strokeColor=none;fontColor=#FFFFFF;fontStyle=1;fontFamily=Tahoma;fontSize=14" vertex="1" parent="1"><mxGeometry x="620" y="560.5" width="130" height="60" as="geometry"/></mxCell><mxCell id="xVI_fUdbiuONRVINJM_F-29" value="SSL &amp; TLS" style="rounded=1;fillColor=#23445D;gradientColor=none;strokeColor=none;fontColor=#FFFFFF;fontStyle=1;fontFamily=Tahoma;fontSize=14" vertex="1" parent="1"><mxGeometry x="620" y="650.5" width="130" height="60" as="geometry"/></mxCell><mxCell id="xVI_fUdbiuONRVINJM_F-30" value="CORS" style="rounded=1;fillColor=#23445D;gradientColor=none;strokeColor=none;fontColor=#FFFFFF;fontStyle=1;fontFamily=Tahoma;fontSize=14" vertex="1" parent="1"><mxGeometry x="620" y="740.5" width="130" height="60" as="geometry"/></mxCell><mxCell id="xVI_fUdbiuONRVINJM_F-31" value="Hashing &#10;Algorithm" style="rounded=1;fillColor=#23445D;gradientColor=none;strokeColor=none;fontColor=#FFFFFF;fontStyle=1;fontFamily=Tahoma;fontSize=14" vertex="1" parent="1"><mxGeometry x="620" y="830.5" width="130" height="60" as="geometry"/></mxCell><mxCell id="xVI_fUdbiuONRVINJM_F-32" value="Cashing" style="rounded=1;fillColor=#23445D;gradientColor=none;strokeColor=none;fontColor=#FFFFFF;fontStyle=1;fontFamily=Tahoma;fontSize=14" vertex="1" parent="1"><mxGeometry x="620" y="920.4999999999999" width="130" height="60" as="geometry"/></mxCell><mxCell id="xVI_fUdbiuONRVINJM_F-33" value="" style="edgeStyle=elbowEdgeStyle;elbow=vertical;strokeWidth=2;rounded=0" edge="1" parent="1" source="xVI_fUdbiuONRVINJM_F-25"><mxGeometry x="360" y="150.5" width="100" height="100" as="geometry"><mxPoint x="360" y="250.5" as="sourcePoint"/><mxPoint x="505" y="470.5" as="targetPoint"/></mxGeometry></mxCell><mxCell id="xVI_fUdbiuONRVINJM_F-34" value="" style="edgeStyle=elbowEdgeStyle;elbow=horizontal;strokeWidth=2;rounded=0" edge="1" parent="1" source="xVI_fUdbiuONRVINJM_F-25" target="xVI_fUdbiuONRVINJM_F-27"><mxGeometry x="360" y="150.5" width="100" height="100" as="geometry"><mxPoint x="360" y="250.5" as="sourcePoint"/><mxPoint x="460" y="150.5" as="targetPoint"/><Array as="points"><mxPoint x="585" y="450.5"/></Array></mxGeometry></mxCell><mxCell id="xVI_fUdbiuONRVINJM_F-35" value="" style="edgeStyle=elbowEdgeStyle;elbow=horizontal;strokeWidth=2;rounded=0" edge="1" parent="1" source="xVI_fUdbiuONRVINJM_F-25" target="xVI_fUdbiuONRVINJM_F-28"><mxGeometry x="360" y="150.5" width="100" height="100" as="geometry"><mxPoint x="360" y="250.5" as="sourcePoint"/><mxPoint x="460" y="150.5" as="targetPoint"/><Array as="points"><mxPoint x="585" y="490.5"/></Array></mxGeometry></mxCell><mxCell id="xVI_fUdbiuONRVINJM_F-36" value="" style="edgeStyle=elbowEdgeStyle;elbow=horizontal;strokeWidth=2;rounded=0" edge="1" parent="1" source="xVI_fUdbiuONRVINJM_F-25" target="xVI_fUdbiuONRVINJM_F-29"><mxGeometry x="360" y="150.5" width="100" height="100" as="geometry"><mxPoint x="360" y="250.5" as="sourcePoint"/><mxPoint x="460" y="150.5" as="targetPoint"/><Array as="points"><mxPoint x="585" y="540.5"/></Array></mxGeometry></mxCell><mxCell id="xVI_fUdbiuONRVINJM_F-37" value="" style="edgeStyle=elbowEdgeStyle;elbow=horizontal;strokeWidth=2;rounded=0" edge="1" parent="1" source="xVI_fUdbiuONRVINJM_F-25" target="xVI_fUdbiuONRVINJM_F-30"><mxGeometry x="360" y="150.5" width="100" height="100" as="geometry"><mxPoint x="360" y="250.5" as="sourcePoint"/><mxPoint x="460" y="150.5" as="targetPoint"/><Array as="points"><mxPoint x="585" y="590.5"/></Array></mxGeometry></mxCell><mxCell id="xVI_fUdbiuONRVINJM_F-38" value="" style="edgeStyle=elbowEdgeStyle;elbow=horizontal;strokeWidth=2;rounded=0" edge="1" parent="1" source="xVI_fUdbiuONRVINJM_F-25" target="xVI_fUdbiuONRVINJM_F-31"><mxGeometry x="360" y="150.5" width="100" height="100" as="geometry"><mxPoint x="360" y="250.5" as="sourcePoint"/><mxPoint x="460" y="150.5" as="targetPoint"/><Array as="points"><mxPoint x="585" y="630.5"/></Array></mxGeometry></mxCell><mxCell id="xVI_fUdbiuONRVINJM_F-39" value="" style="edgeStyle=elbowEdgeStyle;elbow=horizontal;strokeWidth=2;rounded=0" edge="1" parent="1" source="xVI_fUdbiuONRVINJM_F-25" target="xVI_fUdbiuONRVINJM_F-32"><mxGeometry x="360" y="150.5" width="100" height="100" as="geometry"><mxPoint x="360" y="250.5" as="sourcePoint"/><mxPoint x="460" y="150.5" as="targetPoint"/><Array as="points"><mxPoint x="585" y="680.5"/></Array></mxGeometry></mxCell><mxCell id="xVI_fUdbiuONRVINJM_F-40" value="" style="edgeStyle=elbowEdgeStyle;elbow=vertical;rounded=0;strokeWidth=2;backgroundOutline=0;" edge="1" parent="1"><mxGeometry x="360" y="150.5" width="100" height="100" as="geometry"><mxPoint x="505" y="530.5" as="sourcePoint"/><mxPoint x="505" y="560.5" as="targetPoint"/></mxGeometry></mxCell><mxCell id="xVI_fUdbiuONRVINJM_F-41" value="" style="edgeStyle=orthogonalEdgeStyle;rounded=0;orthogonalLoop=1;jettySize=auto;html=1;backgroundOutline=0;" edge="1" parent="1"><mxGeometry relative="1" as="geometry"><mxPoint x="142" y="620.5" as="sourcePoint"/><mxPoint x="142" y="650.5" as="targetPoint"/></mxGeometry></mxCell><mxCell id="xVI_fUdbiuONRVINJM_F-42" value="" style="edgeStyle=elbowEdgeStyle;elbow=vertical;rounded=0;strokeWidth=2;backgroundOutline=0;" edge="1" parent="1"><mxGeometry x="-3" y="150.5" width="100" height="100" as="geometry"><mxPoint x="142" y="530.5" as="sourcePoint"/><mxPoint x="142" y="560.5" as="targetPoint"/></mxGeometry></mxCell><UserObject label="SOAP" id="xVI_fUdbiuONRVINJM_F-43"><mxCell style="rounded=1;fillColor=#23445D;gradientColor=none;strokeColor=none;fontColor=#FFFFFF;fontStyle=1;fontFamily=Tahoma;fontSize=14" vertex="1" parent="1"><mxGeometry x="440" y="470.5" width="130" height="60" as="geometry"/></mxCell></UserObject><mxCell id="xVI_fUdbiuONRVINJM_F-44" value="REST" style="rounded=1;fillColor=#23445D;gradientColor=none;strokeColor=none;fontColor=#FFFFFF;fontStyle=1;fontFamily=Tahoma;fontSize=14" vertex="1" parent="1"><mxGeometry x="440" y="560.5" width="130" height="60" as="geometry"/></mxCell><mxCell id="lyN62f3WHE7YPhkwVgH3-105" style="edgeStyle=orthogonalEdgeStyle;rounded=0;orthogonalLoop=1;jettySize=auto;html=1;exitX=0.5;exitY=1;exitDx=0;exitDy=0;entryX=0.5;entryY=0;entryDx=0;entryDy=0;strokeWidth=2;" edge="1" parent="1" source="xVI_fUdbiuONRVINJM_F-45" target="lyN62f3WHE7YPhkwVgH3-104"><mxGeometry relative="1" as="geometry"/></mxCell><mxCell id="xVI_fUdbiuONRVINJM_F-45" value="APIs" style="rounded=1;fillColor=#23445D;gradientColor=none;strokeColor=none;fontColor=#FFFFFF;fontStyle=1;fontFamily=Tahoma;fontSize=14" vertex="1" parent="1"><mxGeometry x="440" y="650.5" width="130" height="60" as="geometry"/></mxCell><mxCell id="lyN62f3WHE7YPhkwVgH3-1" style="edgeStyle=orthogonalEdgeStyle;rounded=0;orthogonalLoop=1;jettySize=auto;html=1;exitX=0.5;exitY=1;exitDx=0;exitDy=0;strokeWidth=2;" edge="1" parent="1" source="xVI_fUdbiuONRVINJM_F-46" target="xVI_fUdbiuONRVINJM_F-3"><mxGeometry relative="1" as="geometry"/></mxCell><mxCell id="lyN62f3WHE7YPhkwVgH3-2" style="edgeStyle=orthogonalEdgeStyle;rounded=0;orthogonalLoop=1;jettySize=auto;html=1;exitX=0.5;exitY=1;exitDx=0;exitDy=0;entryX=0.5;entryY=0;entryDx=0;entryDy=0;strokeWidth=2;" edge="1" parent="1" source="xVI_fUdbiuONRVINJM_F-46" target="xVI_fUdbiuONRVINJM_F-25"><mxGeometry relative="1" as="geometry"/></mxCell><mxCell id="lyN62f3WHE7YPhkwVgH3-24" style="edgeStyle=orthogonalEdgeStyle;rounded=0;orthogonalLoop=1;jettySize=auto;html=1;exitX=0.5;exitY=1;exitDx=0;exitDy=0;entryX=0.5;entryY=0;entryDx=0;entryDy=0;strokeWidth=2;" edge="1" parent="1" source="xVI_fUdbiuONRVINJM_F-46" target="lyN62f3WHE7YPhkwVgH3-23"><mxGeometry relative="1" as="geometry"/></mxCell><mxCell id="xVI_fUdbiuONRVINJM_F-46" value="Backend Developer&#10;Roadmap" style="rounded=1;fillColor=#23445D;gradientColor=none;strokeColor=none;fontColor=#FFFFFF;fontStyle=1;fontFamily=Tahoma;fontSize=14" vertex="1" parent="1"><mxGeometry x="490" y="180" width="190" height="80" as="geometry"/></mxCell><mxCell id="lyN62f3WHE7YPhkwVgH3-3" value="" style="fillColor=#FFFFFF;strokeColor=none;opacity=30;" vertex="1" parent="1"><mxGeometry x="980.0000000000001" y="460.5000000000002" width="149.99999999999991" height="439.9999999999998" as="geometry"/></mxCell><mxCell id="lyN62f3WHE7YPhkwVgH3-5" value="" style="edgeStyle=orthogonalEdgeStyle;rounded=0;orthogonalLoop=1;jettySize=auto;html=1;backgroundOutline=0;" edge="1" parent="1"><mxGeometry relative="1" as="geometry"><mxPoint x="875" y="620.5" as="sourcePoint"/><mxPoint x="875" y="650.5" as="targetPoint"/></mxGeometry></mxCell><UserObject label="HTTPS" id="lyN62f3WHE7YPhkwVgH3-6"><mxCell style="rounded=1;fillColor=#23445D;gradientColor=none;strokeColor=none;fontColor=#FFFFFF;fontStyle=1;fontFamily=Tahoma;fontSize=14" vertex="1" parent="1"><mxGeometry x="990" y="470.5" width="130" height="60" as="geometry"/></mxCell></UserObject><mxCell id="lyN62f3WHE7YPhkwVgH3-7" value="Web Security" style="rounded=1;fillColor=#23445D;gradientColor=none;strokeColor=none;fontColor=#FFFFFF;fontStyle=1;fontFamily=Tahoma;fontSize=14" vertex="1" parent="1"><mxGeometry x="990" y="560.5" width="130" height="60" as="geometry"/></mxCell><mxCell id="lyN62f3WHE7YPhkwVgH3-8" value="SSL &amp; TLS" style="rounded=1;fillColor=#23445D;gradientColor=none;strokeColor=none;fontColor=#FFFFFF;fontStyle=1;fontFamily=Tahoma;fontSize=14" vertex="1" parent="1"><mxGeometry x="990" y="650.5" width="130" height="60" as="geometry"/></mxCell><mxCell id="lyN62f3WHE7YPhkwVgH3-9" value="CORS" style="rounded=1;fillColor=#23445D;gradientColor=none;strokeColor=none;fontColor=#FFFFFF;fontStyle=1;fontFamily=Tahoma;fontSize=14" vertex="1" parent="1"><mxGeometry x="990" y="740.5" width="130" height="60" as="geometry"/></mxCell><mxCell id="lyN62f3WHE7YPhkwVgH3-10" value="Hashing &#10;Algorithm" style="rounded=1;fillColor=#23445D;gradientColor=none;strokeColor=none;fontColor=#FFFFFF;fontStyle=1;fontFamily=Tahoma;fontSize=14" vertex="1" parent="1"><mxGeometry x="990" y="830.5" width="130" height="60" as="geometry"/></mxCell><mxCell id="lyN62f3WHE7YPhkwVgH3-11" value="Cashing" style="rounded=1;fillColor=#23445D;gradientColor=none;strokeColor=none;fontColor=#FFFFFF;fontStyle=1;fontFamily=Tahoma;fontSize=14" vertex="1" parent="1"><mxGeometry x="990" y="915.4999999999999" width="130" height="60" as="geometry"/></mxCell><mxCell id="lyN62f3WHE7YPhkwVgH3-12" value="" style="edgeStyle=elbowEdgeStyle;elbow=vertical;strokeWidth=2;rounded=0" edge="1" parent="1"><mxGeometry x="730" y="150.5" width="100" height="100" as="geometry"><mxPoint x="955" y="420.5" as="sourcePoint"/><mxPoint x="875" y="470.5" as="targetPoint"/></mxGeometry></mxCell><mxCell id="lyN62f3WHE7YPhkwVgH3-13" value="" style="edgeStyle=elbowEdgeStyle;elbow=horizontal;strokeWidth=2;rounded=0" edge="1" parent="1" target="lyN62f3WHE7YPhkwVgH3-6"><mxGeometry x="730" y="150.5" width="100" height="100" as="geometry"><mxPoint x="955" y="420.5" as="sourcePoint"/><mxPoint x="830" y="150.5" as="targetPoint"/><Array as="points"><mxPoint x="955" y="450.5"/></Array></mxGeometry></mxCell><mxCell id="lyN62f3WHE7YPhkwVgH3-14" value="" style="edgeStyle=elbowEdgeStyle;elbow=horizontal;strokeWidth=2;rounded=0" edge="1" parent="1" target="lyN62f3WHE7YPhkwVgH3-7"><mxGeometry x="730" y="150.5" width="100" height="100" as="geometry"><mxPoint x="955" y="420.5" as="sourcePoint"/><mxPoint x="830" y="150.5" as="targetPoint"/><Array as="points"><mxPoint x="955" y="490.5"/></Array></mxGeometry></mxCell><mxCell id="lyN62f3WHE7YPhkwVgH3-15" value="" style="edgeStyle=elbowEdgeStyle;elbow=horizontal;strokeWidth=2;rounded=0" edge="1" parent="1" target="lyN62f3WHE7YPhkwVgH3-8"><mxGeometry x="730" y="150.5" width="100" height="100" as="geometry"><mxPoint x="955" y="420.5" as="sourcePoint"/><mxPoint x="830" y="150.5" as="targetPoint"/><Array as="points"><mxPoint x="955" y="540.5"/></Array></mxGeometry></mxCell><mxCell id="lyN62f3WHE7YPhkwVgH3-16" value="" style="edgeStyle=elbowEdgeStyle;elbow=horizontal;strokeWidth=2;rounded=0" edge="1" parent="1" target="lyN62f3WHE7YPhkwVgH3-9"><mxGeometry x="730" y="150.5" width="100" height="100" as="geometry"><mxPoint x="955" y="420.5" as="sourcePoint"/><mxPoint x="830" y="150.5" as="targetPoint"/><Array as="points"><mxPoint x="955" y="590.5"/></Array></mxGeometry></mxCell><mxCell id="lyN62f3WHE7YPhkwVgH3-17" value="" style="edgeStyle=elbowEdgeStyle;elbow=horizontal;strokeWidth=2;rounded=0" edge="1" parent="1" target="lyN62f3WHE7YPhkwVgH3-10"><mxGeometry x="730" y="150.5" width="100" height="100" as="geometry"><mxPoint x="955" y="420.5" as="sourcePoint"/><mxPoint x="830" y="150.5" as="targetPoint"/><Array as="points"><mxPoint x="955" y="630.5"/></Array></mxGeometry></mxCell><mxCell id="lyN62f3WHE7YPhkwVgH3-18" value="" style="edgeStyle=elbowEdgeStyle;elbow=horizontal;strokeWidth=2;rounded=0" edge="1" parent="1"><mxGeometry x="730" y="150.5" width="100" height="100" as="geometry"><mxPoint x="955" y="420.5" as="sourcePoint"/><mxPoint x="990" y="950.5" as="targetPoint"/><Array as="points"><mxPoint x="955" y="680.5"/></Array></mxGeometry></mxCell><mxCell id="lyN62f3WHE7YPhkwVgH3-19" value="" style="edgeStyle=elbowEdgeStyle;elbow=vertical;rounded=0;strokeWidth=2;backgroundOutline=0;" edge="1" parent="1"><mxGeometry x="730" y="150.5" width="100" height="100" as="geometry"><mxPoint x="875" y="530.5" as="sourcePoint"/><mxPoint x="875" y="560.5" as="targetPoint"/></mxGeometry></mxCell><UserObject label="SOAP" id="lyN62f3WHE7YPhkwVgH3-20"><mxCell style="rounded=1;fillColor=#23445D;gradientColor=none;strokeColor=none;fontColor=#FFFFFF;fontStyle=1;fontFamily=Tahoma;fontSize=14" vertex="1" parent="1"><mxGeometry x="810" y="470.5" width="130" height="60" as="geometry"/></mxCell></UserObject><mxCell id="lyN62f3WHE7YPhkwVgH3-21" value="REST" style="rounded=1;fillColor=#23445D;gradientColor=none;strokeColor=none;fontColor=#FFFFFF;fontStyle=1;fontFamily=Tahoma;fontSize=14" vertex="1" parent="1"><mxGeometry x="810" y="560.5" width="130" height="60" as="geometry"/></mxCell><mxCell id="lyN62f3WHE7YPhkwVgH3-22" value="APIs" style="rounded=1;fillColor=#23445D;gradientColor=none;strokeColor=none;fontColor=#FFFFFF;fontStyle=1;fontFamily=Tahoma;fontSize=14" vertex="1" parent="1"><mxGeometry x="810" y="650.5" width="130" height="60" as="geometry"/></mxCell><mxCell id="lyN62f3WHE7YPhkwVgH3-23" value="Advance Tools" style="rounded=1;fillColor=#23445D;gradientColor=none;strokeColor=none;fontColor=#FFFFFF;fontStyle=1;fontFamily=Tahoma;fontSize=14" vertex="1" parent="1"><mxGeometry x="860" y="340.5" width="190" height="80" as="geometry"/></mxCell><mxCell id="lyN62f3WHE7YPhkwVgH3-67" style="edgeStyle=orthogonalEdgeStyle;rounded=0;orthogonalLoop=1;jettySize=auto;html=1;exitX=0.5;exitY=1;exitDx=0;exitDy=0;strokeWidth=2;" edge="1" parent="1" source="lyN62f3WHE7YPhkwVgH3-57" target="lyN62f3WHE7YPhkwVgH3-58"><mxGeometry relative="1" as="geometry"/></mxCell><UserObject label="SOLID" id="lyN62f3WHE7YPhkwVgH3-57"><mxCell style="rounded=1;fillColor=#23445D;gradientColor=none;strokeColor=none;fontColor=#FFFFFF;fontStyle=1;fontFamily=Tahoma;fontSize=14;strokeWidth=1;dashed=1;" vertex="1" parent="1"><mxGeometry x="1170" y="470.5" width="130" height="60" as="geometry"/></mxCell></UserObject><mxCell id="lyN62f3WHE7YPhkwVgH3-68" style="edgeStyle=orthogonalEdgeStyle;rounded=0;orthogonalLoop=1;jettySize=auto;html=1;exitX=0.5;exitY=1;exitDx=0;exitDy=0;strokeWidth=2;" edge="1" parent="1" source="lyN62f3WHE7YPhkwVgH3-58" target="lyN62f3WHE7YPhkwVgH3-59"><mxGeometry relative="1" as="geometry"/></mxCell><mxCell id="lyN62f3WHE7YPhkwVgH3-58" value="KISS" style="rounded=1;fillColor=#23445D;gradientColor=none;strokeColor=none;fontColor=#FFFFFF;fontStyle=1;fontFamily=Tahoma;fontSize=14;strokeWidth=1;dashed=1;" vertex="1" parent="1"><mxGeometry x="1170" y="560.5" width="130" height="60" as="geometry"/></mxCell><mxCell id="lyN62f3WHE7YPhkwVgH3-69" style="edgeStyle=orthogonalEdgeStyle;rounded=0;orthogonalLoop=1;jettySize=auto;html=1;exitX=0.5;exitY=1;exitDx=0;exitDy=0;entryX=0.5;entryY=0;entryDx=0;entryDy=0;strokeWidth=2;" edge="1" parent="1" source="lyN62f3WHE7YPhkwVgH3-59" target="lyN62f3WHE7YPhkwVgH3-60"><mxGeometry relative="1" as="geometry"/></mxCell><mxCell id="lyN62f3WHE7YPhkwVgH3-59" value="Yagni" style="rounded=1;fillColor=#23445D;gradientColor=none;strokeColor=none;fontColor=#FFFFFF;fontStyle=1;fontFamily=Tahoma;fontSize=14;strokeWidth=1;dashed=1;" vertex="1" parent="1"><mxGeometry x="1170" y="650.5" width="130" height="60" as="geometry"/></mxCell><mxCell id="lyN62f3WHE7YPhkwVgH3-60" value="DRY" style="rounded=1;fillColor=#23445D;gradientColor=none;strokeColor=none;fontColor=#FFFFFF;fontStyle=1;fontFamily=Tahoma;fontSize=14;strokeWidth=1;dashed=1;" vertex="1" parent="1"><mxGeometry x="1170" y="740.5" width="130" height="60" as="geometry"/></mxCell><mxCell id="lyN62f3WHE7YPhkwVgH3-77" style="edgeStyle=orthogonalEdgeStyle;rounded=0;orthogonalLoop=1;jettySize=auto;html=1;exitX=0.5;exitY=1;exitDx=0;exitDy=0;strokeWidth=2;" edge="1" parent="1" source="lyN62f3WHE7YPhkwVgH3-78" target="lyN62f3WHE7YPhkwVgH3-80"><mxGeometry relative="1" as="geometry"/></mxCell><UserObject label="Architectural &#10;Pattern" id="lyN62f3WHE7YPhkwVgH3-78"><mxCell style="rounded=1;fillColor=#23445D;gradientColor=none;strokeColor=none;fontColor=#FFFFFF;fontStyle=1;fontFamily=Tahoma;fontSize=14;strokeWidth=1;dashed=1;" vertex="1" parent="1"><mxGeometry x="1350" y="470.5" width="130" height="60" as="geometry"/></mxCell></UserObject><mxCell id="lyN62f3WHE7YPhkwVgH3-79" style="edgeStyle=orthogonalEdgeStyle;rounded=0;orthogonalLoop=1;jettySize=auto;html=1;exitX=0.5;exitY=1;exitDx=0;exitDy=0;strokeWidth=2;" edge="1" parent="1" source="lyN62f3WHE7YPhkwVgH3-80" target="lyN62f3WHE7YPhkwVgH3-82"><mxGeometry relative="1" as="geometry"/></mxCell><mxCell id="lyN62f3WHE7YPhkwVgH3-80" value="Microservices" style="rounded=1;fillColor=#23445D;gradientColor=none;strokeColor=none;fontColor=#FFFFFF;fontStyle=1;fontFamily=Tahoma;fontSize=14;strokeWidth=1;dashed=1;" vertex="1" parent="1"><mxGeometry x="1350" y="560.5" width="130" height="60" as="geometry"/></mxCell><mxCell id="lyN62f3WHE7YPhkwVgH3-81" style="edgeStyle=orthogonalEdgeStyle;rounded=0;orthogonalLoop=1;jettySize=auto;html=1;exitX=0.5;exitY=1;exitDx=0;exitDy=0;entryX=0.5;entryY=0;entryDx=0;entryDy=0;strokeWidth=2;" edge="1" parent="1" source="lyN62f3WHE7YPhkwVgH3-82" target="lyN62f3WHE7YPhkwVgH3-83"><mxGeometry relative="1" as="geometry"/></mxCell><mxCell id="lyN62f3WHE7YPhkwVgH3-82" value="Search &#10;Engines" style="rounded=1;fillColor=#23445D;gradientColor=none;strokeColor=none;fontColor=#FFFFFF;fontStyle=1;fontFamily=Tahoma;fontSize=14;strokeWidth=1;dashed=1;" vertex="1" parent="1"><mxGeometry x="1350" y="650.5" width="130" height="60" as="geometry"/></mxCell><mxCell id="lyN62f3WHE7YPhkwVgH3-83" value="DRY" style="rounded=1;fillColor=#23445D;gradientColor=none;strokeColor=none;fontColor=#FFFFFF;fontStyle=1;fontFamily=Tahoma;fontSize=14;strokeWidth=1;dashed=1;" vertex="1" parent="1"><mxGeometry x="1350" y="740.5" width="130" height="60" as="geometry"/></mxCell><mxCell id="lyN62f3WHE7YPhkwVgH3-84" value="" style="fillColor=#FFFFFF;strokeColor=none;opacity=30;" vertex="1" parent="1"><mxGeometry x="1710" y="483.0000000000002" width="149.99999999999991" height="439.9999999999998" as="geometry"/></mxCell><mxCell id="lyN62f3WHE7YPhkwVgH3-85" value="" style="edgeStyle=orthogonalEdgeStyle;rounded=0;orthogonalLoop=1;jettySize=auto;html=1;backgroundOutline=0;" edge="1" parent="1"><mxGeometry relative="1" as="geometry"><mxPoint x="1605" y="643" as="sourcePoint"/><mxPoint x="1605" y="673" as="targetPoint"/></mxGeometry></mxCell><UserObject label="Docker" id="lyN62f3WHE7YPhkwVgH3-86"><mxCell style="rounded=1;fillColor=#23445D;gradientColor=none;strokeColor=none;fontColor=#FFFFFF;fontStyle=1;fontFamily=Tahoma;fontSize=14" vertex="1" parent="1"><mxGeometry x="1720" y="493" width="130" height="60" as="geometry"/></mxCell></UserObject><mxCell id="lyN62f3WHE7YPhkwVgH3-87" value="Containerization&#10;Virtualization&#10;Kafka" style="rounded=1;fillColor=#23445D;gradientColor=none;strokeColor=none;fontColor=#FFFFFF;fontStyle=1;fontFamily=Tahoma;fontSize=14" vertex="1" parent="1"><mxGeometry x="1720" y="583" width="130" height="60" as="geometry"/></mxCell><mxCell id="lyN62f3WHE7YPhkwVgH3-88" value="GraphCL/ &#10;Graph Database" style="rounded=1;fillColor=#23445D;gradientColor=none;strokeColor=none;fontColor=#FFFFFF;fontStyle=1;fontFamily=Tahoma;fontSize=14" vertex="1" parent="1"><mxGeometry x="1720" y="673" width="130" height="60" as="geometry"/></mxCell><mxCell id="lyN62f3WHE7YPhkwVgH3-89" value="WebSockets&#10;Web Server" style="rounded=1;fillColor=#23445D;gradientColor=none;strokeColor=none;fontColor=#FFFFFF;fontStyle=1;fontFamily=Tahoma;fontSize=14" vertex="1" parent="1"><mxGeometry x="1720" y="763" width="130" height="60" as="geometry"/></mxCell><mxCell id="lyN62f3WHE7YPhkwVgH3-90" value="Hashing &#10;Algorithm" style="rounded=1;fillColor=#23445D;gradientColor=none;strokeColor=none;fontColor=#FFFFFF;fontStyle=1;fontFamily=Tahoma;fontSize=14" vertex="1" parent="1"><mxGeometry x="1720" y="853" width="130" height="60" as="geometry"/></mxCell><mxCell id="lyN62f3WHE7YPhkwVgH3-91" value="Cashing" style="rounded=1;fillColor=#23445D;gradientColor=none;strokeColor=none;fontColor=#FFFFFF;fontStyle=1;fontFamily=Tahoma;fontSize=14" vertex="1" parent="1"><mxGeometry x="1720" y="937.9999999999999" width="130" height="60" as="geometry"/></mxCell><mxCell id="lyN62f3WHE7YPhkwVgH3-92" value="" style="edgeStyle=elbowEdgeStyle;elbow=vertical;strokeWidth=2;rounded=0" edge="1" parent="1"><mxGeometry x="1460" y="173" width="100" height="100" as="geometry"><mxPoint x="1685" y="443" as="sourcePoint"/><mxPoint x="1605" y="493" as="targetPoint"/></mxGeometry></mxCell><mxCell id="lyN62f3WHE7YPhkwVgH3-93" value="" style="edgeStyle=elbowEdgeStyle;elbow=horizontal;strokeWidth=2;rounded=0" edge="1" parent="1" target="lyN62f3WHE7YPhkwVgH3-86"><mxGeometry x="1460" y="173" width="100" height="100" as="geometry"><mxPoint x="1685" y="443" as="sourcePoint"/><mxPoint x="1560" y="173" as="targetPoint"/><Array as="points"><mxPoint x="1685" y="473"/></Array></mxGeometry></mxCell><mxCell id="lyN62f3WHE7YPhkwVgH3-94" value="" style="edgeStyle=elbowEdgeStyle;elbow=horizontal;strokeWidth=2;rounded=0" edge="1" parent="1" target="lyN62f3WHE7YPhkwVgH3-87"><mxGeometry x="1460" y="173" width="100" height="100" as="geometry"><mxPoint x="1685" y="443" as="sourcePoint"/><mxPoint x="1560" y="173" as="targetPoint"/><Array as="points"><mxPoint x="1685" y="513"/></Array></mxGeometry></mxCell><mxCell id="lyN62f3WHE7YPhkwVgH3-95" value="" style="edgeStyle=elbowEdgeStyle;elbow=horizontal;strokeWidth=2;rounded=0" edge="1" parent="1" target="lyN62f3WHE7YPhkwVgH3-88"><mxGeometry x="1460" y="173" width="100" height="100" as="geometry"><mxPoint x="1685" y="443" as="sourcePoint"/><mxPoint x="1560" y="173" as="targetPoint"/><Array as="points"><mxPoint x="1685" y="563"/></Array></mxGeometry></mxCell><mxCell id="lyN62f3WHE7YPhkwVgH3-96" value="" style="edgeStyle=elbowEdgeStyle;elbow=horizontal;strokeWidth=2;rounded=0" edge="1" parent="1" target="lyN62f3WHE7YPhkwVgH3-89"><mxGeometry x="1460" y="173" width="100" height="100" as="geometry"><mxPoint x="1685" y="443" as="sourcePoint"/><mxPoint x="1560" y="173" as="targetPoint"/><Array as="points"><mxPoint x="1685" y="613"/></Array></mxGeometry></mxCell><mxCell id="lyN62f3WHE7YPhkwVgH3-97" value="" style="edgeStyle=elbowEdgeStyle;elbow=horizontal;strokeWidth=2;rounded=0" edge="1" parent="1" target="lyN62f3WHE7YPhkwVgH3-90"><mxGeometry x="1460" y="173" width="100" height="100" as="geometry"><mxPoint x="1685" y="443" as="sourcePoint"/><mxPoint x="1560" y="173" as="targetPoint"/><Array as="points"><mxPoint x="1685" y="653"/></Array></mxGeometry></mxCell><mxCell id="lyN62f3WHE7YPhkwVgH3-98" value="" style="edgeStyle=elbowEdgeStyle;elbow=horizontal;strokeWidth=2;rounded=0" edge="1" parent="1"><mxGeometry x="1460" y="173" width="100" height="100" as="geometry"><mxPoint x="1685" y="443" as="sourcePoint"/><mxPoint x="1720" y="973" as="targetPoint"/><Array as="points"><mxPoint x="1685" y="703"/></Array></mxGeometry></mxCell><mxCell id="lyN62f3WHE7YPhkwVgH3-99" value="" style="edgeStyle=elbowEdgeStyle;elbow=vertical;rounded=0;strokeWidth=2;backgroundOutline=0;" edge="1" parent="1"><mxGeometry x="1460" y="173" width="100" height="100" as="geometry"><mxPoint x="1605" y="553" as="sourcePoint"/><mxPoint x="1605" y="583" as="targetPoint"/></mxGeometry></mxCell><UserObject label="Message Broker" id="lyN62f3WHE7YPhkwVgH3-100"><mxCell style="rounded=1;fillColor=#23445D;gradientColor=none;strokeColor=none;fontColor=#FFFFFF;fontStyle=1;fontFamily=Tahoma;fontSize=14" vertex="1" parent="1"><mxGeometry x="1540" y="493" width="130" height="60" as="geometry"/></mxCell></UserObject><mxCell id="lyN62f3WHE7YPhkwVgH3-101" value="RabitMQ" style="rounded=1;fillColor=#23445D;gradientColor=none;strokeColor=none;fontColor=#FFFFFF;fontStyle=1;fontFamily=Tahoma;fontSize=14" vertex="1" parent="1"><mxGeometry x="1540" y="583" width="130" height="60" as="geometry"/></mxCell><mxCell id="lyN62f3WHE7YPhkwVgH3-102" value="" style="rounded=1;fillColor=#23445D;gradientColor=none;strokeColor=none;fontColor=#FFFFFF;fontStyle=1;fontFamily=Tahoma;fontSize=14" vertex="1" parent="1"><mxGeometry x="1540" y="673" width="130" height="60" as="geometry"/></mxCell><mxCell id="lyN62f3WHE7YPhkwVgH3-103" value="CI/CD &amp;&#10;Deployements" style="rounded=1;fillColor=#23445D;gradientColor=none;strokeColor=none;fontColor=#FFFFFF;fontStyle=1;fontFamily=Tahoma;fontSize=14" vertex="1" parent="1"><mxGeometry x="1590" y="363" width="190" height="80" as="geometry"/></mxCell><mxCell id="lyN62f3WHE7YPhkwVgH3-104" value="JSON" style="rounded=1;fillColor=#23445D;gradientColor=none;strokeColor=none;fontColor=#FFFFFF;fontStyle=1;fontFamily=Tahoma;fontSize=14" vertex="1" parent="1"><mxGeometry x="440" y="740.5" width="130" height="60" as="geometry"/></mxCell></root></mxGraphModel></diagram></mxfile>